<svg width="450" height="303" viewBox="0 0 450 303" fill="none" xmlns="http://www.w3.org/2000/svg">
<g clip-path="url(#clip0_2606_11953)">
<mask id="mask0_2606_11953" style="mask-type:luminance" maskUnits="userSpaceOnUse" x="0" y="0" width="450" height="303">
<path d="M450 0H0V303H450V0Z" fill="white"/>
</mask>
<g mask="url(#mask0_2606_11953)">
<path opacity="0.71" d="M97.9922 146.847C79.1259 196.384 26.1607 207.419 42.7711 254.478C59.3815 301.537 104.647 268.685 150.431 295.41C195.723 321.847 175.381 366.506 232.343 363.045C289.543 359.568 280.293 324.863 327.268 291.981C374.558 258.875 404.247 263.944 428.933 226.664C456.795 184.584 455.585 148.345 433.737 107.003C408.817 59.8462 357.202 71.568 312.168 44.4759C282.815 20.9113 231.028 -25.1683 152.257 18.7066C101.969 46.7157 116.656 97.8485 97.9922 146.847Z" fill="#FFE8C2"/>
</g>
<path d="M0 33.7724C0 30.44 2.70076 27.7397 6.03377 27.7397H238.873C242.206 27.7397 244.906 30.44 244.906 33.7724V183.339C244.906 186.671 242.206 189.371 238.873 189.371H6.03377C2.70076 189.371 0 186.671 0 183.339V33.7724Z" fill="#E5E8EA"/>
<path opacity="0.4" d="M214.378 39.5008C214.378 39.2666 214.566 39.0793 214.8 39.0793H220.713C220.947 39.0793 221.134 39.2666 221.134 39.5008C221.134 39.7349 220.947 39.9222 220.713 39.9222H214.8C214.566 39.9222 214.378 39.7349 214.378 39.5008Z" fill="#002233"/>
<path opacity="0.4" d="M231.633 34.982C231.469 34.8182 231.2 34.8182 231.036 34.982C230.872 35.1459 230.872 35.4152 231.036 35.5791L232.851 37.3896L231.04 39.2041C230.876 39.368 230.876 39.6372 231.04 39.8011C231.204 39.965 231.473 39.965 231.637 39.8011L233.448 37.9866L235.262 39.7972C235.426 39.9611 235.696 39.9611 235.86 39.7972C236.024 39.6333 236.024 39.3641 235.86 39.2002L234.045 37.3896L235.856 35.5752C236.02 35.4113 236.02 35.142 235.856 34.9781C235.692 34.8143 235.423 34.8143 235.259 34.9781L233.448 36.7926L231.633 34.982Z" fill="#002233"/>
<mask id="mask1_2606_11953" style="mask-type:luminance" maskUnits="userSpaceOnUse" x="2" y="47" width="241" height="140">
<path d="M2.41195 47.0396H242.487V182.133C242.487 184.798 240.324 186.956 237.663 186.956H7.23975C4.57412 186.956 2.41585 184.794 2.41585 182.133V47.0396H2.41195Z" fill="white"/>
</mask>
<g mask="url(#mask1_2606_11953)">
<path d="M2.41195 47.0396H242.487V182.133C242.487 184.798 240.324 186.956 237.663 186.956H7.23975C4.57412 186.956 2.41585 184.794 2.41585 182.133V47.0396H2.41195Z" fill="white"/>
<path d="M133.859 139.608L132.439 139.616V141.087H128.516L128.505 139.62L127.08 139.608L127.064 138.145L125.648 138.126L125.609 139.616L124.051 139.628L124.036 141.107H120.199L120.18 139.643L118.759 139.62V138.145L117.381 138.141L117.374 139.604L115.988 139.612V141.103L111.96 141.111L111.949 139.624H110.559V138.145H109.15L109.127 139.616L107.628 139.628L107.609 141.111H104.978L104.97 121.827L102.278 121.811L102.258 120.356L100.83 120.344V114.155L102.262 114.12L102.281 112.618L104.97 112.602L104.978 104.88L106.313 104.845C106.411 104.326 106.36 103.861 106.223 103.339C106.762 103.421 107.207 103.444 107.753 103.389C107.855 102.866 107.827 102.39 107.628 101.828C108.202 101.91 108.674 102.008 109.256 101.91C109.392 101.473 109.275 101.009 109.213 100.556H116.956L116.995 99.1595L115.434 99.14V96.2056L111.43 96.19V94.7033H109.732V91.1836L111.426 91.168V89.6267L115.411 89.6111L115.434 91.168L117.054 91.1836L117.042 94.6604L115.434 94.6877V96.1861L117.015 96.1978V99.097L118.42 99.1126L118.439 100.568H126.822L126.838 99.1321L128.278 99.1009V96.1939L129.831 96.1666V94.6682L128.181 94.6565V91.2031L129.828 91.1758L129.847 89.6462L133.816 89.6306L133.848 91.168L135.354 91.1836V94.6916L133.816 94.6994L133.808 96.2095L129.859 96.2017L129.851 99.1439H128.305L128.321 100.568H135.854L135.861 101.914H137.278L137.313 103.409L138.71 103.417L138.722 104.876L140.073 104.892V112.512H142.777L142.844 114.007C143.285 114.136 143.702 114.085 144.198 114.073V120.289L142.797 120.297L142.781 121.795L140.069 121.834V141.13H136.685L136.673 139.64L135.276 139.62V138.18C134.811 138.118 134.386 138.118 133.887 138.165L133.867 139.62L133.859 139.608Z" fill="#B2BCC1"/>
<path d="M142.617 114.147H139.928V120.422H142.617V114.147Z" fill="#E5E8EA"/>
<path d="M104.974 114.124H102.285V120.348H104.974V114.124Z" fill="#E5E8EA"/>
<path d="M132.677 94.6488C132.119 94.6761 131.635 94.8049 131.076 94.6644L129.89 94.5864L129.851 91.2111L131.104 91.1096C131.666 91.0628 132.119 90.9535 132.661 91.1408L133.762 91.2228C133.863 92.3466 133.789 93.4587 133.754 94.602L132.677 94.6527V94.6488Z" fill="#E5E8EA"/>
<path d="M114.15 94.6762C113.67 94.7972 113.311 94.8128 112.878 94.684L111.609 94.6099C111.316 93.9504 111.379 93.2597 111.496 92.573C111.57 92.1555 111.445 91.6989 111.57 91.3048C111.839 91.1136 112.171 91.2268 112.46 91.1838C113.03 91.1019 113.533 91.0941 114.115 91.137L115.375 91.2268C115.492 92.2686 115.43 93.2714 115.395 94.3055C115.375 94.844 114.653 94.5474 114.154 94.6762H114.15Z" fill="#E5E8EA"/>
<path d="M124.044 139.612L120.234 139.605L120.207 138.13L118.806 138.102L118.786 136.651L117.35 136.658L117.339 138.098L115.953 138.118L115.937 139.589L112.011 139.62L111.988 138.11L110.606 138.098L110.591 136.655L109.127 136.662L109.111 138.102L107.632 138.118V139.616L106.379 139.577V104.935L107.773 104.896V103.44C108.163 103.413 108.53 103.366 108.94 103.452C109.088 103.483 109.26 103.69 109.47 103.581V101.981H135.729L135.74 103.44L137.235 103.452L137.247 104.884L138.664 104.931L138.675 139.597L136.712 139.62L136.697 138.114H135.315L135.299 136.678L133.844 136.662L133.832 138.11L132.431 138.126V139.608H128.551L128.512 138.122L127.115 138.106L127.1 136.674L125.62 136.658L125.609 138.114H124.051L124.04 139.616L124.044 139.612Z" fill="#E5E8EA"/>
<path d="M129.23 124.839H126.249L126.21 123.434L118.654 123.427L118.634 124.859L115.766 124.847L115.774 126.353L114.326 126.361L114.318 124.851L115.754 124.847L115.758 123.352L118.576 123.345L118.595 121.889L126.393 121.885L126.44 123.341L129.289 123.349L129.293 124.796L129.336 124.847L130.733 124.851L130.749 126.353L129.289 126.365L129.281 124.898L129.23 124.839Z" fill="#B2BCC1"/>
<path d="M118.634 117.257H117.253C117.28 116.809 117.323 116.399 117.221 115.934C116.761 115.837 116.355 115.888 115.941 115.895L115.934 114.686C115.602 114.631 115.301 114.631 114.93 114.694L114.88 115.903H113.397L113.381 117.261H112.023V115.817H113.33V114.557L114.505 114.53V113.308L113.358 113.297L113.299 112.032L112.003 112.001L111.996 110.577H113.362L113.381 111.915L114.646 111.923L114.653 113.168L115.937 113.156L115.953 111.915L117.241 111.904V110.589L118.611 110.577V111.97L117.354 111.997C117.237 112.419 117.3 112.813 117.311 113.293H116.012L116.004 114.538L117.303 114.565C117.284 115.029 117.249 115.415 117.346 115.821L118.615 115.837V117.265L118.634 117.257Z" fill="#B2BCC1"/>
<path d="M131.354 115.88H129.945L129.898 114.682C129.539 114.627 129.234 114.627 128.903 114.682L128.887 115.868L127.677 115.895L127.662 117.257H126.241V115.829H127.513L127.517 114.549L128.875 114.522L128.86 113.297L127.501 113.273L127.486 111.982L126.229 111.966V110.569H127.642V111.892L128.848 111.907L128.864 113.168L129.988 113.148L129.999 111.896L131.381 111.865L131.404 110.561H132.747L132.751 111.947L131.463 111.966L131.455 113.269L130.292 113.285L130.284 114.518L131.428 114.537L131.443 115.794C131.443 115.794 131.451 115.833 131.471 115.829H132.766V117.242H131.4V115.911L131.357 115.88H131.354Z" fill="#B2BCC1"/>
</g>
<path d="M366.331 32.6565C365.172 31.1542 365.523 29.3359 366.522 27.8687C368.747 24.5987 372.131 23.7325 375.093 21.2117C376.397 20.1035 376.884 18.3827 376.178 16.8024C375.526 15.343 373.84 14.4143 372.092 14.6953C368.365 15.2962 368.009 19.1241 365.363 18.2657C364.391 17.9496 363.72 17.0833 363.451 16.3576C362.998 15.1401 363.306 14.1646 363.935 13.1813C365.594 10.5864 368.443 9.20896 371.483 9.04117C374.145 8.89289 376.35 9.75135 378.43 11.2966C381.029 13.2281 382.309 16.1273 381.896 19.4012C381.712 20.8449 381.365 22.0702 380.467 23.2915C377.345 27.5409 372.818 28.2745 372.006 30.0148L370.757 32.6955C370.378 33.5111 369.465 33.7335 368.653 33.7881C367.842 33.8428 366.952 33.4604 366.327 32.6526L366.331 32.6565Z" fill="#072B43"/>
<path d="M366.718 43.9959C368.733 43.9959 370.367 42.3624 370.367 40.3474C370.367 38.3324 368.733 36.699 366.718 36.699C364.702 36.699 363.068 38.3324 363.068 40.3474C363.068 42.3624 364.702 43.9959 366.718 43.9959Z" fill="#072B43"/>
<path d="M132.497 207.173L126.463 189.836C125.936 188.318 125.246 186.839 125.476 185.177C125.866 182.317 129.07 179.261 132.388 179.987L150.251 183.901L190.04 192.723L203.248 195.537C206.3 196.188 209.071 197.995 210.136 201.043L215.702 216.951L220.244 230.687L232.964 230.558L230.064 226.773C227.71 222.641 226.192 218.024 226.145 213.202C226.06 204.418 230.415 194.924 235.259 187.639L241.285 179.402C243.611 176.222 245.191 173.541 246.233 169.697C247.275 165.854 249.27 162.88 252.302 160.531C253.707 159.443 254.624 158.046 255.124 156.282C256.97 149.734 259.651 143.592 263.503 137.958L264.92 136.596L266.957 128.304C268.265 122.974 270.162 120.699 274.221 117.218L281.093 111.318L279.243 107.541L276.332 100.681C274.626 96.6622 273.557 92.5377 273.112 88.1244C271.875 87.465 270.673 87.0045 269.701 86.0134C266.911 83.1727 266.528 78.1 267.067 74.1784C267.266 72.723 268.101 71.6031 269.514 71.3221L272.289 70.7641C271.945 68.8014 272.843 67.5371 271.832 66.3118C270.673 64.9071 269.518 63.4282 268.932 61.6684C267.508 57.3956 267.995 52.916 270.002 48.9359C270.177 48.5847 270.54 47.7653 270.201 47.4843C268.987 46.4776 268.296 45.3148 267.707 43.9061C266.153 40.1992 266.056 36.3712 267.324 32.5511C268.593 28.731 271.348 26.2141 275.064 24.8874C280.461 22.9598 285.527 25.3908 289.996 24.2085L296.201 21.8438C298.699 20.8917 301.263 20.2518 303.944 19.9123L310.97 19.8381C313.733 20.0645 316.371 20.7785 318.935 21.7697C322.296 23.073 325.234 25.1176 327.186 28.1339C328.162 29.644 328.54 31.3258 329.188 32.9725C332.65 33.1364 336.119 34.1236 338.59 36.4883C341.536 39.3056 342.906 45.3616 343.027 49.4939C343.156 53.9501 342.633 58.2189 341.568 62.5034L339.519 69.4296C341.72 76.5392 340.904 81.8772 336.26 87.6406C335.3 88.8307 334.273 89.6462 333.071 90.5515L330.308 93.6186C330.175 93.7629 330.082 94.0166 330.113 94.1297C330.148 94.2702 330.492 94.3131 330.694 94.3131L344.304 94.3209L346.021 94.7424C348.663 95.0077 351.219 95.5462 353.577 96.6973L358.572 99.1322C361.944 101.224 364.056 104.708 364.333 108.696C364.399 109.648 364.797 110.21 365.648 110.604C370.558 112.86 373.138 117.936 373.516 123.227C373.555 123.77 373.793 124.199 374.266 124.457C381.228 128.257 386.634 133.041 390.525 140.014C392.476 143.514 394.088 147.05 395.232 150.921L399.24 164.492L405.41 193.231C406.452 199.38 407.143 205.308 407.475 211.496C407.814 215.816 407.584 219.944 407.182 224.276C406.815 228.213 405.968 232.002 404.731 235.81L442.347 291.633C443.006 292.609 443.361 293.631 443.342 294.759L443.252 299.609C443.225 301.026 442.003 302.372 440.805 303.086C439.806 303.683 438.693 303.737 437.452 303.737H76.6281C74.7899 303.737 73.0492 303.371 71.8511 301.989C69.6694 299.472 70.2626 293.697 71.2891 292.203L84.0903 273.567L110.403 235.307C112.616 232.088 115.715 230.991 119.548 230.991H140.428C140.736 231.014 140.834 230.866 140.752 230.64L137.192 220.682L132.501 207.177L132.497 207.173Z" fill="#072B43"/>
<path d="M366.917 236.622C369.734 237.886 356.519 242.576 341.966 238.592C340.939 238.311 339.917 237.945 339.288 237.133C339.335 236.68 340.03 236.294 340.432 236.134C345.525 234.125 353.276 233.968 358.838 234.565C361.679 234.87 364.356 235.471 366.921 236.618L366.917 236.622Z" fill="#FEFEFE"/>
<path d="M372.103 263.101L372.142 252.948C373.653 252.815 374.968 252.191 376.436 251.859L378.867 251.309C379.874 255.098 378.403 259.047 375.386 261.517C374.453 262.282 373.559 262.887 372.1 263.101H372.103Z" fill="#FEFEFE"/>
<path d="M373.352 250.892C373.048 250.985 372.763 251.04 372.513 250.892C372.349 250.794 372.1 250.54 372.107 250.213L372.17 246.783L372.513 245.573C374.781 245.526 377.485 247.407 377.891 249.467L373.356 250.892H373.352Z" fill="#FEC067"/>
<path d="M245.933 236.392C244.84 238.015 244.02 239.568 243.349 241.617L226.825 237.106L222.122 235.877L221.076 232.587H234.755C237.854 234.776 241.847 236.372 245.929 236.388L245.933 236.392Z" fill="#FEFEFE"/>
<path d="M308.526 252.074C309.615 252.078 310.552 252.363 311.336 252.987C313.834 254.973 316.687 256.066 319.915 256.331C322.756 256.565 325.558 256.581 328.407 256.331L333.891 255.855L333.988 273.547C333.996 275.288 335.511 276.735 336.853 277.617C338.512 278.706 340.264 279.248 342.153 279.755C345.841 280.75 349.51 280.93 353.343 280.946C357.706 280.965 361.894 280.637 366.042 279.295C369.059 278.319 372.338 276.154 372.388 273.04L372.455 269.033C375.917 268.798 379.144 267.565 381.65 265.251C385.654 261.556 385.916 255.383 385.35 250.018C389.436 249.386 393.253 248.262 396.754 246.174C399.837 244.336 402.034 241.535 403.525 238.3C403.486 238.054 403.744 238.023 403.81 238.226L408.509 245.128L440.434 292.765L76.2222 292.753L74.2357 292.73C73.7635 292.726 73.5761 292.843 73.6073 292.609L88.4147 271.058L112.249 236.357C113.658 234.308 115.93 233.09 118.392 233.083L141.399 233.009C141.766 233.009 141.809 233.286 141.899 233.539L145.349 243.17L148.218 250.829C149.412 254.017 152.066 253.951 151.984 255.875C151.804 260.147 156.09 260.83 159.63 261.868L170.659 265.103L190.45 270.886L220.767 279.81L228.714 282.054C230.778 282.635 232.741 282.756 234.818 282.054L255.694 275.018L296.127 261.224L297.598 260.487C299.749 259.41 300.522 256.659 299.089 254.661C298.484 253.814 297.446 253.334 296.459 253.003L286.659 249.709L286.253 249.631C286.159 249.612 286.089 249.51 286.226 249.428C286.284 249.393 286.413 249.253 286.565 249.241L294.5 248.566C296.178 251.005 299.663 252.031 302.454 252.047L308.522 252.078L308.526 252.074Z" fill="#FEFEFE"/>
<path d="M223.488 273.684L193.05 264.791L164.301 256.472L153.358 253.338C151.621 252.839 150.368 251.817 149.74 250.061L141.653 227.511L130.116 194.76L129.605 193.442L127.798 187.866C127.384 186.593 127.084 185.052 127.642 184.599C127.868 184.416 128.149 184.358 128.508 184.436L142.886 187.639L195.048 199.31L200.441 200.567C202.186 200.973 203.357 202.046 203.966 203.739L209.89 220.249L227.843 270.96C228.382 272.482 229.264 273.61 229.529 275.249L223.499 273.68L223.488 273.684Z" fill="#FC8404"/>
<path d="M265.295 257.104L271.118 258.856L259.394 262.539L248.821 265.868L238.357 269.255C236.941 269.711 233.522 269.508 233.003 268.018L229.83 258.871L225.345 245.429L237.893 248.824L244.294 250.451C244.762 250.568 245.23 250.845 245.449 251.262C246.436 253.167 249.067 252.644 250.433 253.506C251.494 254.177 252.392 254.649 253.762 254.536L255.585 254.384L265.295 257.1V257.104Z" fill="#FEC067"/>
<path d="M293.528 260.467L282.951 264.057L253.957 273.898L235.153 280.259C233.05 280.969 231.094 281.047 228.979 280.45L220.857 278.163L192.109 269.653L156.937 259.379C154.673 258.715 153.369 257.435 153.572 255.028L188.756 265.146L213.824 272.345L228.159 276.536C230.403 277.192 232.355 277.075 234.587 276.357L284.793 260.233L297.926 256.136C298.851 258.805 296.127 259.582 293.532 260.463L293.528 260.467Z" fill="#FC8404"/>
<path d="M228.877 269.177L218.832 240.598L213.543 225.548L208.138 210.474L205.191 202.451C204.602 200.851 203.201 199.591 201.405 199.193L152.562 188.341L149.279 187.666L147.461 187.19L135.994 184.56L128.528 182.956C130.23 181.419 131.397 181.423 133.563 181.907L147.453 185.025L199.899 196.571L204.817 197.944C206.866 198.76 208.157 200.289 208.86 202.358L214.593 219.238L217.146 226.878L224.803 249.272L231.02 268.045C231.621 269.863 231.781 271.647 230.595 273.379L228.877 269.181V269.177Z" fill="#FC8404"/>
<path d="M233.198 270.289C234.981 271.28 236.827 271.342 238.705 270.738L248.317 267.651L271.11 260.409C272.413 259.995 273.803 259.39 273.756 258.548C273.74 258.259 273.491 257.88 273.108 257.763L263.382 254.79L265.857 252.577C267.718 250.911 271.738 246.974 273.151 247.407L285.102 251.067L296.892 254.946L260.658 266.328L236.742 274.039C234.864 274.644 233.245 275.401 231.086 275.467C232.409 273.887 233.159 272.536 233.202 270.285L233.198 270.289Z" fill="#FC8404"/>
<path d="M242.463 248.371L224.795 243.595L222.781 237.746L242.553 243.103C242.338 244.836 242.147 246.533 242.647 248.141C242.654 248.172 242.67 248.215 242.729 248.262C242.775 248.371 242.643 248.34 242.651 248.468L242.459 248.371H242.463Z" fill="#FC8404"/>
<path d="M253.391 252.917C252.646 253.186 252.138 252.577 251.834 252.195C251.42 251.676 251.529 250.919 251.83 250.279C254.87 243.786 258.937 238.386 265.201 234.76C266.341 234.101 267.344 233.403 268.304 232.482C268.019 232.064 267.488 231.943 267.067 232.154C258.918 236.169 254.972 240.973 250.706 248.765C249.898 250.24 248.93 251.688 247.713 251.052C247.166 250.767 246.659 249.994 246.909 249.253L248.649 244.145C251.209 238.67 253.75 233.832 259.238 230.917L264.073 228.349C264.05 227.858 263.367 227.627 262.906 227.776C259.749 228.786 256.939 230.41 254.394 232.532C250.327 235.927 247.459 242.51 245.621 247.559C245.515 247.848 245.269 248.067 245.129 248.191C244.965 248.34 244.317 248.266 244.27 247.996C243.849 245.678 244.138 243.404 245.125 241.211C248.325 234.101 251.947 231.19 258.59 227.35C261.322 225.774 264.104 224.588 267.231 224.1C269.966 223.671 272.663 223.671 275.391 224.112L282.783 225.306L294.277 227.432C294.929 227.553 295.526 227.834 295.846 228.451C298.047 232.712 299.261 237.375 299.085 242.206C299.035 243.587 298.804 244.957 297.915 245.987C297.419 246.564 296.451 246.592 295.729 246.67L289.863 247.306C287.1 247.606 284.469 247.126 281.804 246.365L276.781 244.933C272.933 243.837 269.24 247.29 266.263 249.869L262.188 253.401C261.529 253.974 260.479 254.267 259.721 253.783C259.312 253.518 259.355 252.769 259.526 252.312C261.392 247.368 264.783 243.38 269.233 240.547L272.921 238.385C273.194 238.226 273.257 237.816 273.217 237.621C273.159 237.344 272.636 237.102 272.253 237.277C267.246 239.599 263.07 243.045 259.651 247.333L256.318 250.868C255.522 251.711 254.597 252.468 253.387 252.909L253.391 252.917Z" fill="white"/>
<path d="M283.767 135.222C283.423 135.269 283.248 135.562 283.209 135.71C283.138 135.964 283.287 136.268 283.587 136.413C284.079 136.651 284.614 136.608 285.152 136.553L289.317 136.124C291.299 136.147 293.742 137.224 294.211 139.39C295.128 143.616 291.389 147.627 287.096 147.354C286.901 146.613 287.018 145.797 287.018 145.005C287.018 144.353 287.467 143.916 287.693 143.366C287.83 143.034 287.338 142.765 287.123 142.703C286.842 142.621 286.487 142.593 286.218 142.886C285.141 144.068 285.929 147.331 284.087 151.892C283.33 153.769 281.948 155.025 280.274 156.095C278.599 157.164 277.671 158.959 276.96 160.824C275.879 161.093 274.747 160.882 273.643 160.586C269.412 159.45 264.518 155.962 262.305 152.04C262.961 151.787 263.55 151.603 264.038 151.131L266.173 140.155L269.186 127.196C269.662 125.147 270.692 123.231 272.16 121.827L274.872 119.228L281.589 113.078C282.573 112.177 283.607 111.631 284.988 111.681C287.463 111.767 289.824 112.247 292.197 112.957L298.66 115.447C299.71 115.853 300.256 117.035 299.647 118.057C299.503 118.303 298.957 118.428 298.644 118.405L288.891 117.624C285.972 117.39 284.68 119.427 282.787 121.085L278.666 123.59C278.299 123.813 278.17 124.191 278.33 124.527C278.478 124.835 278.884 124.995 279.275 124.831L283.006 123.263C285.254 122.318 287.919 122.104 290.218 123.146C292.517 124.187 293.781 126.626 293.867 128.96C291.651 127.863 289.375 127.169 287.006 127.481L281.968 128.647C281.304 128.885 280.559 129.233 280.391 129.951C280.293 130.36 280.828 130.485 281.152 130.392L286.148 128.944C288.805 128.171 294.285 129.596 294.425 133.228C294.461 134.122 294.223 134.922 293.918 135.773C291.951 134.813 289.914 134.407 287.787 134.688L283.763 135.219L283.767 135.222Z" fill="white"/>
<path d="M274.119 85.9627C272.788 85.7559 271.715 85.1511 270.767 84.3667C268.686 82.6498 268.386 77.7527 268.678 74.7949C268.831 73.2731 270.735 73.1483 272.695 73.2809L272.987 80.172L274.123 85.9666L274.119 85.9627Z" fill="#FEFEFE"/>
<path d="M290.96 121.152L288.392 120.594C288.146 120.371 288.259 119.641 288.439 119.282L291.463 119.579L290.96 121.152Z" fill="#FCBF74"/>
<path d="M285.812 120.438C286.354 119.88 286.713 119.626 287.287 119.376C287.272 119.794 287.194 120.278 286.948 120.492C286.702 120.707 286.034 120.722 285.808 120.438H285.812Z" fill="#FEFEFE"/>
<path d="M298.98 113.652C295.819 112.571 292.978 111.307 289.785 110.659C287.49 110.195 285.273 109.914 282.943 110.124C280.937 107.151 279.497 104.092 278.158 100.798C276.484 96.674 275.313 92.5261 274.915 88.0582C279.185 88.6982 284.165 87.6797 285.57 83.6255C286.386 81.132 286.565 78.5645 286.557 75.9501L290.499 76.1959C290.585 78.8259 290.96 81.2647 291.732 83.7152C292.271 85.4204 293.407 86.7003 295.085 87.4339C298.918 89.1118 303.281 89.4005 307.297 88.2182C309.034 87.707 310.197 86.4818 310.798 84.839C311.785 82.1388 312.16 79.3956 312.367 76.5198L318.404 74.4868L321.655 73.6947L321.855 77.7919C321.878 78.2913 322.089 78.7245 322.366 78.982C322.764 79.3449 323.314 79.2512 323.833 79.2981C325.375 79.4424 326.596 78.7323 326.745 77.1402C326.998 74.4517 328.122 72.0363 330.156 70.2218C332.021 68.1108 335.304 67.9859 337.232 70.0931C339.612 74.401 339.343 79.6336 336.646 83.7464C335.55 85.4204 334.359 87.0905 332.576 88.0621C330.577 89.1508 328.009 87.2505 327.49 87.5509C326.835 87.9294 328.4 88.6747 328.197 90.2902C327.678 94.403 328.076 98.3246 329.207 102.289L332.966 113C333.364 114.132 333.785 115.146 333.789 116.418C327.447 121.296 321.695 126.634 316.063 132.284L307.699 140.674C303.094 134.887 301.564 127.836 301.064 120.984L302.973 120.57C305.63 119.993 307.964 118.479 309.849 116.528C312.176 114.12 314.135 111.494 315.368 108.396C315.489 108.091 315.372 107.693 315.22 107.561C314.993 107.366 314.56 107.432 314.26 107.666C311.098 110.105 307.742 112.111 303.874 113.262C302.36 113.714 300.592 114.202 298.976 113.648L298.98 113.652Z" fill="white"/>
<path d="M284.036 93.685C285.636 95.2419 287.955 94.2079 288.169 95.2575C288.567 97.2203 282.479 96.4242 281.8 93.5055C281.585 92.5846 281.761 91.574 282.42 90.8443C283.837 89.2717 287.346 86.0955 287.615 87.4183C287.779 88.2143 287.002 88.9323 286.44 89.3888L284.06 91.3203C283.326 91.9134 283.271 92.9475 284.032 93.6889L284.036 93.685Z" fill="#072B43"/>
<path d="M330.523 79.0951L330.964 80.691C331.139 81.327 330.628 81.8499 330 81.9124C328.037 82.1153 328.087 74.6428 333.852 72.563C334.066 72.4849 334.297 72.5279 334.398 72.602C334.898 72.9766 334.312 73.8312 333.36 74.6077C331.971 75.7393 330.792 77.1284 330.519 79.0912L330.523 79.0951Z" fill="#072B43"/>
<path d="M296.092 102.96C294.539 102.999 292.201 101.614 287.916 101.973C287.533 102.004 287.166 101.832 287.151 101.512C287.061 99.6629 296.865 100.439 296.845 102.301C296.845 102.617 296.525 102.948 296.088 102.96H296.092Z" fill="#072B43"/>
<path d="M303.012 71.0099C298.922 70.327 292.938 70.7952 290.394 74.0223L286.315 73.5501C285.656 72.918 285.074 72.2663 284.247 71.8722C281.144 70.3855 277.772 69.9602 274.256 70.5494C273.889 66.3508 274.197 62.3668 274.65 58.2696C274.923 55.7918 275.255 53.3842 276.324 51.0742C280.855 53.3686 285.484 54.6133 290.448 54.9099C294.691 55.1635 298.683 54.1373 302.594 52.635L307.617 51.0586C311.219 50.5435 314.42 52.7286 315.114 56.2561C315.7 59.2217 314.603 62.3395 317.081 65.0202L320.11 67.6424C321.101 68.5008 321.737 69.7027 321.687 71.1035L315.501 72.9414C314.189 73.3316 312.983 73.753 311.559 73.8584C310.876 72.879 309.951 72.161 308.776 71.9659L303.019 71.006L303.012 71.0099Z" fill="white"/>
<path d="M306.774 67.9937C306.321 68.6609 305.627 69.0394 304.846 69.1604C300.693 69.8081 294.999 69.2111 293.001 65.4612C292.79 65.0632 292.829 64.6223 293.04 64.4428C293.376 64.1462 293.918 64.1501 294.16 64.4896C296.467 67.74 301.111 68.4541 304.92 67.6659C305.506 67.5449 306.107 67.5683 306.778 67.9937H306.774Z" fill="#072B43"/>
<path d="M276.129 68.7388C275.59 68.6374 275.614 67.5136 276.043 67.5175H278.916C283.478 67.5331 283.978 63.3306 285.215 63.7598C285.566 63.8807 285.831 64.3061 285.628 64.7704C283.946 68.6452 280.36 69.5349 276.129 68.7427V68.7388Z" fill="#072B43"/>
<path d="M305.79 86.6182C303.031 87.0981 300.248 86.9499 297.614 86.267C295.03 85.5997 293.282 83.5863 292.923 80.9407C292.642 78.8609 292.661 76.7889 292.782 74.6544C292.841 73.5931 297.458 72.6527 299.64 72.9063L307.477 73.8194C308.425 73.9286 309.244 74.2954 310.052 74.8144C310.302 77.8541 310.15 80.8704 309.124 83.7072C308.561 85.2642 307.539 86.3099 305.79 86.6143V86.6182Z" fill="white"/>
<path d="M300.502 83.8167C299.85 84.7961 298.695 85.0224 297.727 84.8936C295.171 84.5542 294.074 80.695 295.491 78.3538C296.006 77.4992 296.755 76.9451 297.641 76.8866C298.527 76.8281 299.417 77.1831 300.108 77.9402C301.513 79.4815 301.732 81.9749 300.506 83.8206L300.502 83.8167Z" fill="#072B43"/>
<path d="M283.326 83.7462C282.545 85.3422 278.256 86.8445 276.757 85.9743C274.759 84.8154 274.388 76.223 274.509 72.8087C277.257 72.3288 279.934 72.4458 282.506 73.398C283.318 73.6984 283.978 74.073 284.43 74.8768C284.844 77.858 284.668 80.9992 283.322 83.7502L283.326 83.7462Z" fill="white"/>
<path d="M282.288 83.4224C281.328 84.4564 279.216 84.2301 278.33 83.2858C276.867 81.725 276.601 79.3525 277.444 77.542C277.952 76.4533 278.818 75.7119 279.825 75.6377C280.972 75.5519 281.999 76.0006 282.623 77.0542C283.728 78.9272 283.942 81.6391 282.292 83.4224H282.288Z" fill="#072B43"/>
<path d="M273.619 222.129L269.018 222.106L273.748 217.135L273.619 222.129Z" fill="#FEFEFE"/>
<path d="M259.534 149.684L261.513 144.931L263.913 140.99L262.297 149.621C261.388 149.832 260.588 149.836 259.534 149.684Z" fill="#FCBF74"/>
<path d="M260.057 149.274L261.927 144.771C262.188 144.143 262.59 143.635 263.094 143.179L262.118 149.055C261.532 149.356 260.974 149.547 260.057 149.274Z" fill="#FEC067"/>
<path d="M384.944 215.785C385.151 215.27 384.994 214.563 384.479 214.185C377.72 209.202 371.506 208.262 363.033 208.89L362.089 202.428L359.892 189.969L357.569 178.032L356.539 172.429C356.441 171.902 355.747 171.196 355.302 171.711C354.857 172.226 354.896 173.291 355.009 173.978L356.465 182.867L359.033 196.688L360.855 209.206L352.336 210.759C343.457 212.378 334.664 213.28 325.648 213.6L320.059 214.037C314.264 214.493 309.303 216.031 305.798 220.834C305.42 221.353 304.955 221.49 304.315 221.517C301.115 221.657 298.012 221.923 294.921 222.66C291.635 223.441 292.4 225.399 289.949 224.959L275.661 222.407L275.723 213.986L275.653 209.026L275.54 199.271C275.528 198.143 275.828 197.328 276.09 196.294L277.116 192.224L278.237 188.045L278.99 185.895L280.137 182.328C280.762 180.389 281.043 178.333 280.699 176.315L279.958 173.806L278.705 171.808L279.778 170.037C280.594 168.687 281.32 167.469 281.714 165.897C282.487 162.818 283.201 161.253 280.648 158.038C280.781 157.519 281.265 157.195 281.679 156.93C283.341 155.872 284.59 154.491 285.254 152.653L286.546 149.071C290.862 148.661 293.848 147.081 295.405 143.097L296.072 141.388C296.865 141.481 297.509 141.739 298.098 142.281C297.228 146.293 296.814 150.203 296.615 154.308L296.662 170.154L296.849 177.978L296.631 186.757C296.599 187.963 296.728 189.063 297.376 189.161C298.262 189.297 298.578 186.968 298.598 185.196L298.746 172.503L298.523 166.345L298.508 155.744C298.73 151.467 299.015 147.358 299.804 143.089L301.884 145.247C302.114 145.485 302.508 145.364 302.614 145.134C303.273 143.717 299.288 139.714 296.108 139.523C295.916 138.52 295.639 137.735 295.023 136.904C296.392 134.961 296.502 132.659 295.46 130.544C295.994 127.489 294.995 124.566 292.786 122.478L293.458 119.93L299.327 120.34C299.242 124.055 299.928 127.43 300.924 130.946C302.087 135.043 303.784 138.887 306.587 142.067C306.946 142.476 307.633 142.847 308.085 142.504C309.678 141.298 310.923 139.928 312.297 138.469C317.347 133.108 322.522 128.078 328.083 123.228C332.868 119.056 337.825 115.435 343.343 112.329L348.363 109.141C349.572 108.372 350.271 106.823 349.682 105.442C349.373 104.712 348.702 104.033 348.023 103.6C341.365 99.3547 333.134 101.427 333.637 102.671C333.719 102.874 334.07 103.03 334.39 103.019L339.429 102.874C342.001 103.081 347.363 104.322 347.89 105.863C348.035 106.293 347.804 106.886 347.445 107.229L346.236 108.376L339.554 112.618L335.569 115.256L334.968 113.332L331.776 104.217C330.878 101.653 330.082 99.1362 329.949 96.4281L338.687 96.2759C344.51 96.1745 349.889 97.2788 355.153 99.581C359.091 101.302 361.777 104.447 362.342 108.856L362.666 111.377C367.806 112.848 371.241 117.769 371.358 123.192L366.156 121.382C361.359 120.032 356.512 120.172 351.824 121.944C348.257 123.294 344.983 125.015 341.931 127.294L333.867 133.307C330.14 136.085 326.557 138.812 322.459 141.009C320.883 141.856 319.419 142.765 317.558 142.886L317.94 140.869C317.991 140.592 317.679 140.436 317.495 140.459C317.245 140.49 316.972 140.603 316.839 140.896L315.692 143.429C314.205 143.866 312.406 144.178 312.492 145.052C312.515 145.306 312.788 145.547 313.132 145.501L315.735 145.157C315.477 150.835 315.758 156.286 316.168 161.944L317.07 174.427C317.343 178.196 317.312 181.809 316.945 185.575L316.032 194.94C315.973 195.545 316.336 196.559 316.98 196.497C317.511 196.446 317.839 195.545 317.905 195.03C318.557 189.973 319.142 185.056 319.208 179.913C319.283 174.356 318.639 169.03 318.248 163.516L317.597 154.327C317.37 151.112 317.382 147.998 317.764 144.826C323.904 142.804 329.676 138.567 334.789 134.813L344.023 128.031C346.864 125.943 349.963 124.418 353.331 123.333C357.409 122.022 361.581 122.104 365.648 123.255C368.376 124.027 370.87 124.964 373.341 126.314C380.682 130.333 385.748 135.203 389.561 142.707C391.344 146.215 392.703 149.75 393.764 153.554L398.28 169.748L400.703 180.432C402.748 189.438 404.142 198.409 405.039 207.618C405.816 215.586 405.633 224.299 403.67 231.982C402.015 238.448 399.302 243.267 393.042 245.971C390.576 247.036 388.054 247.735 385.369 248.074C384.998 248.121 384.897 247.782 384.819 247.493L384.729 247.165C383.266 241.808 377.954 239.58 372.537 239.755C372.342 239.81 372.256 239.712 372.295 239.486C372.193 237.734 372.463 235.978 372.006 234.273C371.319 231.717 367.767 230.359 365.051 229.711C361.047 228.755 357.089 228.533 352.944 228.529C348.421 228.529 344.046 228.857 339.745 230.18C336.892 231.057 333.953 232.361 333.949 235.393L333.914 254.029L324.013 254.626L318.479 254.22C316.476 253.99 314.767 253.116 313.225 251.844C311.973 250.814 310.646 250.306 308.991 250.275L302.048 250.131C300.245 250.092 298.547 249.674 297.013 248.722L296.994 248.387C296.99 248.301 297.099 248.281 297.263 248.273C301.712 248.028 301.575 237.238 299.074 231.627L297.267 227.577L295.265 224.674C295.944 224.276 296.681 224.088 297.419 224.018L305.268 223.261C308.257 222.972 310.716 225.399 311.887 227.975C312.823 230.039 313.276 232.166 313.674 234.417C314.427 238.698 314.201 242.916 313.077 247.103C312.94 247.606 313.225 248.125 313.604 248.258C314.096 248.43 314.545 248.117 314.747 247.555C316.754 241.89 316.223 234.729 314.404 229.021C313.335 225.669 311.083 223.027 307.797 221.653C307.843 220.932 308.476 220.573 308.932 220.12C313.151 215.953 318.853 216.194 324.622 215.718L344.893 214.052L358.475 211.617C362.307 210.931 365.976 210.607 369.852 210.833C373.329 211.032 376.549 211.93 379.62 213.6L383.024 215.453C383.874 215.914 384.713 216.3 384.924 215.781L384.944 215.785Z" fill="#FEC067"/>
<path d="M356.976 156.485L356.309 158.471C356.199 158.795 355.86 158.959 355.61 158.943C354.767 158.889 354.755 157.527 355.064 156.056C356.067 151.272 357.8 146.796 360.411 142.66C362.639 139.129 365.703 136.319 369.446 134.52C371.108 133.72 373.723 133.014 373.891 133.724C373.957 134.005 373.801 134.317 373.489 134.45L370.347 135.808C365.672 138.372 362.272 142.406 360.145 147.268C358.826 150.288 357.722 153.176 356.976 156.481V156.485Z" fill="#072B43"/>
<path d="M273.756 214.45L270.068 218.345L266.512 222.325L260.877 224.373C258.679 225.587 256.377 226.492 254.445 228.108L252.271 229.641C250.718 230.738 249.172 231.896 248.056 233.41C247.74 233.84 247.619 234.292 247.287 234.523C246.709 234.928 246.296 234.655 245.691 234.64C242.892 234.558 240.262 233.769 237.952 232.216C235.969 230.886 234.295 229.438 232.932 227.44C227.55 219.558 226.813 211.356 230.122 202.405C233.26 193.914 237.097 188.123 242.565 181.084L245.632 176.491C249 171.446 247.275 166.962 253.032 162.65C255.143 161.07 256.369 159.053 257.189 156.59L258.586 152.392C258.695 152.068 259.085 151.826 259.308 151.799C259.624 151.76 259.866 152.001 260.065 152.321C266.505 162.689 278.592 164.34 279.286 161.772C279.403 161.347 278.72 161.164 278.541 160.988C278.272 160.719 278.549 160.379 278.666 160.208C278.845 159.95 279.31 159.607 279.649 159.876C281.187 161.093 280.422 164.757 279.497 166.677L277.218 171.387C277.046 171.746 276.874 172.144 276.976 172.554C277.05 172.85 277.526 173.092 277.799 173.455C279.583 175.847 278.978 179.878 277.963 182.902C276.484 187.3 275.184 191.541 274.178 196.099C272.691 202.842 270.731 209.3 268.534 215.816C268.394 216.237 268.675 216.698 268.901 216.784C269.311 216.936 269.689 216.795 269.877 216.351L272.218 210.716L273.616 206.412L273.76 214.458L273.756 214.45Z" fill="#FEC067"/>
<path d="M274.564 173.615C274.689 174.423 273.623 174.875 272.948 174.942C269.853 175.234 266.86 174.591 264.022 173.338C261.77 172.343 259.682 171.188 257.961 169.452C256.861 168.339 255.631 166.876 256.349 166.244C256.517 166.096 256.904 166.096 257.157 166.345C259.936 169.104 263.148 171.184 266.903 172.405C268.975 173.104 270.989 173.365 273.186 173.186C273.541 173.159 274.482 173.139 274.568 173.619L274.564 173.615Z" fill="#072B43"/>
</g>
<defs>
<clipPath id="clip0_2606_11953">
<rect width="450" height="303" fill="white"/>
</clipPath>
</defs>
</svg>
