<svg width="20" height="20" viewBox="0 0 20 20" fill="none" xmlns="http://www.w3.org/2000/svg">
<path d="M15.1 9.56094C15.1961 9.31016 15.25 9.03594 15.25 8.75C15.25 7.50781 14.2422 6.5 13 6.5C12.5383 6.5 12.107 6.64062 11.7508 6.87969C11.1016 5.75469 9.88984 5 8.5 5C6.42812 5 4.75 6.67812 4.75 8.75C4.75 8.81328 4.75234 8.87656 4.75469 8.93984C3.44219 9.40156 2.5 10.6531 2.5 12.125C2.5 13.9883 4.01172 15.5 5.875 15.5H14.5C16.157 15.5 17.5 14.157 17.5 12.5C17.5 11.0492 16.4687 9.8375 15.1 9.56094ZM11.8211 11.0539L11.568 11.307C11.343 11.532 10.9773 11.525 10.7594 11.2953L10 10.4867V13.4375C10 13.7492 9.74922 14 9.4375 14H9.0625C8.75078 14 8.5 13.7492 8.5 13.4375V10.4867L7.74063 11.2953C7.52266 11.5273 7.15703 11.532 6.93203 11.307L6.67891 11.0539C6.45859 10.8336 6.45859 10.4773 6.67891 10.2594L8.85156 8.08672C9.07187 7.86641 9.42812 7.86641 9.64609 8.08672L11.8188 10.2594C12.0391 10.4797 12.0391 10.8359 11.8211 11.0539V11.0539Z" fill="#0077B2"/>
</svg>
