<svg width="24" height="24" viewBox="0 0 24 24" fill="none" xmlns="http://www.w3.org/2000/svg">
<path d="M3.2 3H13.1C14.3031 3 15.3 4.01891 15.3 5.24862V11.9945C15.3 13.2593 14.3031 14.2431 13.1 14.2431H8.68997L5.54029 16.3863C5.36841 16.5269 4.95877 16.5355 4.75252 16.4652C4.58064 16.3598 4.3 16.1755 4.3 15.9296V14.2431H3.2C1.9625 14.2431 1 13.2593 1 11.9945V5.24862C1 4.01891 1.9625 3 3.2 3ZM13.1 15.3674C14.9219 15.3674 16.4 13.8566 16.4 11.9945V7.49724H20.8C22.0031 7.49724 23 8.51615 23 9.74587V16.4917C23 17.7566 22.0031 18.7404 20.8 18.7404H19.7V20.4268C19.7 20.6728 19.5625 20.8484 19.3906 20.9538C19.1844 21.0241 18.9781 21.0241 18.8062 20.8836L16.0219 18.7404H12C10.7625 18.7404 9.8 17.7566 9.8 16.4917V15.3674H13.1Z" fill="#0077B2"/>
</svg>
