<svg width="146" height="32" viewBox="0 0 146 32" fill="none" xmlns="http://www.w3.org/2000/svg">
<path d="M52.3683 9.28882C52.3683 8.95635 52.4513 8.70699 52.6171 8.54076C52.798 8.35941 53.0542 8.26874 53.3859 8.26874H58.6769C60.2145 8.26874 61.5486 8.54831 62.6792 9.10747C63.8248 9.65151 64.7067 10.4449 65.3247 11.4876C65.9428 12.5153 66.2518 13.7243 66.2518 15.1146V17.2908C66.2518 18.6811 65.9428 19.8976 65.3247 20.9404C64.7067 21.968 63.8248 22.7614 62.6792 23.3205C61.5486 23.8646 60.2145 24.1366 58.6769 24.1366H52.3683V9.28882ZM58.6769 20.623C59.7774 20.623 60.6291 20.3359 61.232 19.7616C61.835 19.1873 62.1365 18.3637 62.1365 17.2908V15.1146C62.1365 14.0416 61.8425 13.218 61.2547 12.6437C60.6668 12.0695 59.8301 11.7823 58.7448 11.7823H56.4384V20.623H58.6769Z" fill="#002233"/>
<path d="M36.4424 9.28882C36.4424 8.95635 36.5253 8.70699 36.6911 8.54076C36.872 8.35941 37.1283 8.26874 37.4599 8.26874H43.7233C45.698 8.26874 47.2356 8.73722 48.336 9.67418C49.4364 10.596 49.9866 11.8881 49.9866 13.5505V14.0265C49.9866 15.4168 49.6776 16.5578 49.0596 17.4494C48.4566 18.3259 47.5672 18.938 46.3914 19.2856L50.1675 24.1366H46.1201C45.8487 24.1366 45.6151 24.0837 45.4191 23.9779C45.2382 23.8721 45.0649 23.7135 44.8991 23.5019L42.0952 19.6029H40.4672V24.1366H36.4424V9.28882ZM43.6328 16.0893C44.4016 16.0893 44.9669 15.9307 45.3287 15.6133C45.6905 15.2959 45.8714 14.7746 45.8714 14.0492V13.5958C45.8714 13.0215 45.6829 12.5757 45.3061 12.2584C44.9443 11.941 44.3941 11.7823 43.6554 11.7823H40.4672V16.0893H43.6328Z" fill="#002233"/>
<path d="M134.738 11.669H135.891C136.358 11.669 136.592 11.9033 136.592 12.3718V12.9838C138.536 12.0317 139.998 11.5557 140.978 11.5557H141.137C142.614 11.5557 143.707 11.9108 144.415 12.6211C145.124 13.3163 145.478 14.359 145.478 15.7493V24.1366H143.511V16.0894C143.511 15.1071 143.277 14.3968 142.81 13.9585C142.343 13.5052 141.611 13.2785 140.617 13.2785H140.345C139.863 13.2785 139.343 13.3541 138.785 13.5052C138.227 13.6563 137.534 13.8981 136.705 14.2306V24.1366H134.738V11.669Z" fill="#002233"/>
<path d="M126.054 24.25C124.29 24.25 122.888 23.7513 121.848 22.7539C120.808 21.7414 120.288 20.351 120.288 18.5829V17.2228C120.288 16.0894 120.529 15.092 121.011 14.2306C121.494 13.3692 122.164 12.7118 123.024 12.2584C123.898 11.7899 124.908 11.5557 126.054 11.5557H126.506C128.27 11.5557 129.664 12.062 130.689 13.0745C131.729 14.0719 132.249 15.4547 132.249 17.2228V18.5829C132.249 19.7163 132.008 20.7137 131.526 21.5751C131.058 22.4214 130.387 23.0788 129.513 23.5473C128.639 24.0158 127.636 24.25 126.506 24.25H126.054ZM126.506 22.5272C127.636 22.5272 128.541 22.1796 129.219 21.4844C129.898 20.7893 130.237 19.8221 130.237 18.5829V17.2001C130.237 15.9609 129.898 15.0013 129.219 14.3212C128.541 13.6261 127.636 13.2785 126.506 13.2785H126.054C124.908 13.2785 123.996 13.6261 123.318 14.3212C122.639 15.0013 122.3 15.9609 122.3 17.2001V18.5829C122.3 19.8221 122.639 20.7893 123.318 21.4844C123.996 22.1796 124.908 22.5272 126.054 22.5272H126.506Z" fill="#002233"/>
<path d="M115.825 11.669H117.091C117.558 11.669 117.792 11.9033 117.792 12.3718V24.1367H115.825V11.669ZM116.774 9.47021C116.322 9.47021 115.991 9.36442 115.78 9.15285C115.569 8.94128 115.463 8.60881 115.463 8.15544C115.463 7.67185 115.569 7.31671 115.78 7.09003C115.991 6.86334 116.33 6.75 116.797 6.75C117.264 6.75 117.596 6.85579 117.792 7.06736C118.003 7.27893 118.109 7.61896 118.109 8.08744C118.109 8.57103 118.003 8.92616 117.792 9.15285C117.581 9.36442 117.242 9.47021 116.774 9.47021Z" fill="#002233"/>
<path d="M112.23 24.25C110.722 24.25 109.546 23.91 108.702 23.2299C107.873 22.5348 107.459 21.3787 107.459 19.7617V8.60881H108.725C109.192 8.60881 109.426 8.84305 109.426 9.31153V11.669H113.586V13.3692H109.426V19.671C109.426 20.6684 109.652 21.3862 110.104 21.8245C110.571 22.2627 111.28 22.4819 112.23 22.4819H112.953C113.466 22.4668 113.722 22.6934 113.722 23.1619V24.1593C113.285 24.2198 112.787 24.25 112.23 24.25Z" fill="#002233"/>
<path d="M98.5435 24.25C97.2471 24.25 96.1919 23.9402 95.3779 23.3206C94.579 22.701 94.1795 21.8623 94.1795 20.8044V20.5097C94.1795 19.4518 94.5714 18.6282 95.3553 18.0389C96.1542 17.4495 97.3451 17.1548 98.9279 17.1548H102.591V15.8174C102.591 14.8955 102.357 14.223 101.89 13.7999C101.438 13.3767 100.707 13.1651 99.6967 13.1651H99.2445C98.4455 13.1651 97.8124 13.3012 97.3451 13.5732C96.8778 13.8452 96.5989 14.2306 96.5085 14.7293C96.4633 14.9408 96.3954 15.0844 96.305 15.16C96.2296 15.2204 96.0789 15.2506 95.8528 15.2506H94.5639C94.5639 14.1928 94.9634 13.3163 95.7623 12.6211C96.5612 11.9108 97.737 11.5557 99.2897 11.5557H99.6967C101.385 11.5557 102.614 11.9259 103.382 12.6664C104.166 13.3918 104.558 14.4648 104.558 15.8854V24.1366H103.428C103.217 24.1366 103.043 24.0762 102.908 23.9553C102.787 23.8344 102.727 23.6606 102.727 23.4339V22.9806C101.867 23.4188 101.121 23.7437 100.488 23.9553C99.8701 24.1518 99.2897 24.25 98.747 24.25H98.5435ZM99.3123 22.6859C100.051 22.6859 101.144 22.361 102.591 21.7111V18.6056H99.041C98.0159 18.6056 97.2848 18.7718 96.8477 19.1043C96.4105 19.4367 96.1919 19.9052 96.1919 20.5097V20.7364C96.1919 21.356 96.4331 21.8396 96.9155 22.1872C97.4129 22.5196 98.0838 22.6859 98.9279 22.6859H99.3123Z" fill="#002233"/>
<path d="M91.4394 24.25C89.9319 24.25 88.7561 23.91 87.912 23.2299C87.0829 22.5348 86.6683 21.3787 86.6683 19.7617V8.60881H87.9346C88.4019 8.60881 88.6355 8.84305 88.6355 9.31153V11.669H92.796V13.3692H88.6355V19.671C88.6355 20.6684 88.8616 21.3862 89.3139 21.8245C89.7812 22.2627 90.4897 22.4819 91.4394 22.4819H92.1629C92.6754 22.4668 92.9317 22.6934 92.9317 23.1619V24.1593C92.4946 24.2198 91.9971 24.25 91.4394 24.25Z" fill="#002233"/>
<path d="M77.5567 24.25C75.597 24.25 74.0821 23.8193 73.0118 22.9579C71.9415 22.0814 71.4064 20.88 71.4064 19.3536H72.7404C72.9666 19.3536 73.1248 19.4065 73.2153 19.5123C73.3208 19.603 73.4037 19.7692 73.464 20.011C73.5846 20.8119 73.9916 21.4315 74.685 21.8698C75.3785 22.3081 76.3357 22.5272 77.5567 22.5272H78.122C79.4184 22.5272 80.4133 22.2703 81.1067 21.7565C81.8001 21.2275 82.1468 20.5399 82.1468 19.6936V19.3309C82.1468 18.6962 81.9282 18.2051 81.4911 17.8575C81.0539 17.5099 80.3907 17.2681 79.5013 17.1321L75.7025 16.5427C74.5268 16.3614 73.5846 15.9685 72.8761 15.364C72.1676 14.7595 71.8134 13.9208 71.8134 12.8478V12.3944C71.8134 11.6237 72.032 10.921 72.4691 10.2863C72.9063 9.63643 73.5545 9.12261 74.4137 8.7448C75.288 8.35189 76.3281 8.15543 77.5341 8.15543H78.0541C79.9987 8.15543 81.4308 8.57857 82.3503 9.42486C83.2849 10.256 83.7598 11.3668 83.7748 12.7571H82.3955C82.1845 12.7571 82.0262 12.7118 81.9207 12.6211C81.8303 12.5304 81.77 12.3869 81.7398 12.1904C81.6343 11.4801 81.2876 10.921 80.6997 10.5129C80.1269 10.0898 79.2525 9.87822 78.0768 9.87822H77.5115C76.3206 9.87822 75.4086 10.1049 74.7755 10.5583C74.1424 10.9965 73.8258 11.5859 73.8258 12.3264V12.6891C73.8258 13.2936 74.0142 13.7621 74.3911 14.0945C74.783 14.427 75.3634 14.6537 76.1322 14.7746L80.0213 15.364C82.7799 15.8022 84.1592 17.0717 84.1592 19.1723V19.6256C84.1592 20.5777 83.8954 21.4013 83.3678 22.0965C82.8402 22.7916 82.1167 23.3281 81.1971 23.7059C80.2927 24.0686 79.2601 24.25 78.0994 24.25H77.5567Z" fill="#002233"/>
<path d="M27.9909 16.5681C27.8442 17.1213 27.498 17.6234 26.9893 18.0174C25.5632 19.123 23.991 20.0991 22.3151 20.9169C20.64 21.7357 18.8543 22.3995 17.0094 22.8905C16.6813 22.9773 16.3425 23.0215 15.9995 23.0215C15.6574 23.0215 15.3177 22.9773 14.9905 22.8905C13.1447 22.3995 11.36 21.7357 9.68479 20.9169C8.00887 20.0991 6.43678 19.123 5.01059 18.0174C4.5011 17.6234 4.15496 17.1213 4.00907 16.5681H4.00814C3.91091 16.1962 3.91091 15.8038 4.00814 15.432H4.00907C4.15496 14.8779 4.5011 14.3766 5.01059 13.9826C6.43678 12.8771 8.00887 11.901 9.68479 11.0831C11.36 10.2644 13.1447 9.60064 14.9905 9.10869C15.3177 9.02272 15.6574 8.97845 15.9995 8.97845C16.3425 8.97845 16.6813 9.02272 17.0094 9.10869C18.8543 9.60064 20.64 10.2644 22.3151 11.0831C23.991 11.901 25.5632 12.8771 26.9893 13.9826C27.498 14.3766 27.8442 14.8779 27.9909 15.432C28.0891 15.8038 28.0891 16.1962 27.9909 16.5681ZM28.3512 6.69771C28.1871 6.07733 27.7939 5.51648 27.2391 5.08672C24.3348 2.83403 20.8791 1.1472 17.1198 0.145597C16.7555 0.0485306 16.3779 0 15.9995 0C15.6219 0 15.2444 0.0485306 14.88 0.145597C11.1201 1.1472 7.66511 2.83403 4.76086 5.08672C4.206 5.51648 3.81203 6.07733 3.64877 6.69771C3.21595 8.33344 3 10.0006 3 11.667V12.7427V15.9996V19.2574V20.3323C3 21.9995 3.21595 23.6667 3.64877 25.3015C3.81203 25.9228 4.206 26.4828 4.76086 26.9134C7.66511 29.1652 11.1201 30.8528 14.88 31.8545C15.2444 31.9515 15.6219 32 15.9995 32C16.3779 32 16.7555 31.9515 17.1198 31.8545C20.8791 30.8528 24.3348 29.1652 27.2391 26.9134C27.7939 26.4828 28.1871 25.9228 28.3512 25.3015C28.784 23.6667 29 21.9995 29 20.3323V19.2574V15.9996V12.7427V11.667C29 10.0006 28.784 8.33344 28.3512 6.69771Z" fill="#002233"/>
</svg>
