<svg width="170" height="32" viewBox="0 0 170 32" fill="none" xmlns="http://www.w3.org/2000/svg">
<path d="M164.399 24.11C162.742 24.11 161.495 23.7654 160.659 23.076C159.838 22.372 159.427 21.4847 159.427 20.414H160.637C160.842 20.414 160.989 20.4507 161.077 20.524C161.165 20.5974 161.253 20.7367 161.341 20.942C161.473 21.4554 161.796 21.8514 162.309 22.13C162.837 22.394 163.541 22.526 164.421 22.526H164.641C165.58 22.526 166.313 22.3647 166.841 22.042C167.369 21.7194 167.633 21.2207 167.633 20.546V20.37C167.633 19.5927 166.944 19.072 165.565 18.808L162.991 18.302C161.994 18.1114 161.202 17.7887 160.615 17.334C160.028 16.8794 159.735 16.212 159.735 15.332V15.046C159.735 14.43 159.911 13.88 160.263 13.396C160.63 12.8974 161.158 12.5087 161.847 12.23C162.536 11.9367 163.35 11.79 164.289 11.79H164.553C166.152 11.79 167.332 12.12 168.095 12.78C168.858 13.44 169.239 14.3567 169.239 15.53H167.985C167.78 15.53 167.633 15.4934 167.545 15.42C167.457 15.332 167.391 15.1927 167.347 15.002C167.23 14.474 166.951 14.0707 166.511 13.792C166.086 13.5134 165.44 13.374 164.575 13.374H164.355C163.534 13.374 162.874 13.5134 162.375 13.792C161.876 14.0707 161.627 14.4814 161.627 15.024V15.2C161.627 15.6107 161.788 15.9334 162.111 16.168C162.448 16.4027 162.925 16.5787 163.541 16.696L166.291 17.268C167.332 17.488 168.132 17.8327 168.689 18.302C169.261 18.7567 169.547 19.3947 169.547 20.216V20.502C169.547 21.646 169.107 22.5334 168.227 23.164C167.347 23.7947 166.159 24.11 164.663 24.11H164.399Z" fill="#00DBFF"/>
<path d="M151.171 24.11C149.91 24.11 148.883 23.8094 148.091 23.208C147.314 22.6067 146.925 21.7927 146.925 20.766V20.48C146.925 19.4534 147.307 18.654 148.069 18.082C148.847 17.51 150.005 17.224 151.545 17.224H155.109V15.926C155.109 15.0314 154.882 14.3787 154.427 13.968C153.987 13.5574 153.276 13.352 152.293 13.352H151.853C151.076 13.352 150.46 13.484 150.005 13.748C149.551 14.012 149.279 14.386 149.191 14.87C149.147 15.0754 149.081 15.2147 148.993 15.288C148.92 15.3467 148.773 15.376 148.553 15.376H147.299C147.299 14.3494 147.688 13.4987 148.465 12.824C149.243 12.1347 150.387 11.79 151.897 11.79H152.293C153.936 11.79 155.131 12.1494 155.879 12.868C156.642 13.572 157.023 14.6134 157.023 15.992V24H155.923C155.718 24 155.549 23.9414 155.417 23.824C155.3 23.7067 155.241 23.538 155.241 23.318V22.878C154.405 23.3034 153.679 23.6187 153.063 23.824C152.462 24.0147 151.897 24.11 151.369 24.11H151.171ZM151.919 22.592C152.638 22.592 153.701 22.2767 155.109 21.646V18.632H151.655C150.658 18.632 149.947 18.7934 149.521 19.116C149.096 19.4387 148.883 19.8934 148.883 20.48V20.7C148.883 21.3014 149.118 21.7707 149.587 22.108C150.071 22.4307 150.724 22.592 151.545 22.592H151.919Z" fill="#00DBFF"/>
<path d="M139.756 24.11C138.099 24.11 136.852 23.7654 136.016 23.076C135.195 22.372 134.784 21.4847 134.784 20.414H135.994C136.2 20.414 136.346 20.4507 136.434 20.524C136.522 20.5974 136.61 20.7367 136.698 20.942C136.83 21.4554 137.153 21.8514 137.666 22.13C138.194 22.394 138.898 22.526 139.778 22.526H139.998C140.937 22.526 141.67 22.3647 142.198 22.042C142.726 21.7194 142.99 21.2207 142.99 20.546V20.37C142.99 19.5927 142.301 19.072 140.922 18.808L138.348 18.302C137.351 18.1114 136.559 17.7887 135.972 17.334C135.386 16.8794 135.092 16.212 135.092 15.332V15.046C135.092 14.43 135.268 13.88 135.62 13.396C135.987 12.8974 136.515 12.5087 137.204 12.23C137.894 11.9367 138.708 11.79 139.646 11.79H139.91C141.509 11.79 142.69 12.12 143.452 12.78C144.215 13.44 144.596 14.3567 144.596 15.53H143.342C143.137 15.53 142.99 15.4934 142.902 15.42C142.814 15.332 142.748 15.1927 142.704 15.002C142.587 14.474 142.308 14.0707 141.868 13.792C141.443 13.5134 140.798 13.374 139.932 13.374H139.712C138.891 13.374 138.231 13.5134 137.732 13.792C137.234 14.0707 136.984 14.4814 136.984 15.024V15.2C136.984 15.6107 137.146 15.9334 137.468 16.168C137.806 16.4027 138.282 16.5787 138.898 16.696L141.648 17.268C142.69 17.488 143.489 17.8327 144.046 18.302C144.618 18.7567 144.904 19.3947 144.904 20.216V20.502C144.904 21.646 144.464 22.5334 143.584 23.164C142.704 23.7947 141.516 24.11 140.02 24.11H139.756Z" fill="#00DBFF"/>
<path d="M127.604 11.9H128.748C128.968 11.9 129.137 11.9587 129.254 12.076C129.386 12.1934 129.452 12.362 129.452 12.582V13.264C130.45 12.7214 131.22 12.34 131.762 12.12C132.305 11.9 132.818 11.79 133.302 11.79H133.566V13.066C133.566 13.3007 133.515 13.4694 133.412 13.572C133.324 13.6747 133.148 13.7334 132.884 13.748C132.298 13.792 131.755 13.8727 131.256 13.99C130.758 14.1074 130.178 14.2907 129.518 14.54V24H127.604V11.9Z" fill="#00DBFF"/>
<path d="M119.258 24.11C117.513 24.11 116.134 23.6114 115.122 22.614C114.11 21.6167 113.604 20.26 113.604 18.544V17.334C113.604 16.2194 113.832 15.244 114.286 14.408C114.741 13.572 115.379 12.9267 116.2 12.472C117.036 12.0174 117.997 11.79 119.082 11.79H119.566C121.473 11.79 122.859 12.2814 123.724 13.264C124.604 14.232 125.044 15.6254 125.044 17.444V17.752C125.044 17.9574 124.986 18.1187 124.868 18.236C124.751 18.3534 124.59 18.412 124.384 18.412H115.518V18.522C115.518 19.7394 115.856 20.7147 116.53 21.448C117.22 22.1667 118.136 22.526 119.28 22.526H119.72C120.556 22.526 121.246 22.3794 121.788 22.086C122.331 21.7927 122.676 21.3967 122.822 20.898C122.896 20.6927 122.984 20.5534 123.086 20.48C123.204 20.392 123.358 20.348 123.548 20.348H124.824C124.824 21.0667 124.619 21.712 124.208 22.284C123.812 22.8414 123.226 23.2887 122.448 23.626C121.686 23.9487 120.776 24.11 119.72 24.11H119.258ZM123.042 16.762C122.94 15.6034 122.61 14.7527 122.052 14.21C121.495 13.6527 120.674 13.374 119.588 13.374H119.104C118.048 13.374 117.198 13.682 116.552 14.298C115.922 14.914 115.577 15.8014 115.518 16.96L123.042 16.762Z" fill="#00DBFF"/>
<path d="M100.552 11.9H102.048C102.444 11.9 102.708 12.076 102.84 12.428L106.624 21.646L110.452 12.428C110.598 12.076 110.862 11.9 111.244 11.9H112.608L107.526 24H105.678L100.552 11.9Z" fill="#00DBFF"/>
<path d="M88.6101 11.9H89.7321C90.1868 11.9 90.4141 12.1274 90.4141 12.582V13.176C92.3061 12.252 93.7288 11.79 94.6821 11.79H94.8361C96.2734 11.79 97.3368 12.1347 98.0261 12.824C98.7154 13.4987 99.0601 14.5107 99.0601 15.86V24H97.1461V16.19C97.1461 15.2367 96.9188 14.5474 96.4641 14.122C96.0094 13.682 95.2981 13.462 94.3301 13.462H94.0661C93.5968 13.462 93.0908 13.5354 92.5481 13.682C92.0054 13.8287 91.3308 14.0634 90.5241 14.386V24H88.6101V11.9Z" fill="#00DBFF"/>
<path d="M79.9411 24.11C78.2251 24.11 76.8611 23.626 75.8491 22.658C74.8371 21.6754 74.3311 20.326 74.3311 18.61V17.29C74.3311 16.19 74.5657 15.222 75.0351 14.386C75.5044 13.55 76.1571 12.912 76.9931 12.472C77.8437 12.0174 78.8264 11.79 79.9411 11.79H80.3811C82.0971 11.79 83.4537 12.2814 84.4511 13.264C85.4631 14.232 85.9691 15.574 85.9691 17.29V18.61C85.9691 19.71 85.7344 20.678 85.2651 21.514C84.8104 22.3354 84.1577 22.9734 83.3071 23.428C82.4564 23.8827 81.4811 24.11 80.3811 24.11H79.9411ZM80.3811 22.438C81.4811 22.438 82.3611 22.1007 83.0211 21.426C83.6811 20.7514 84.0111 19.8127 84.0111 18.61V17.268C84.0111 16.0654 83.6811 15.134 83.0211 14.474C82.3611 13.7994 81.4811 13.462 80.3811 13.462H79.9411C78.8264 13.462 77.9391 13.7994 77.2791 14.474C76.6191 15.134 76.2891 16.0654 76.2891 17.268V18.61C76.2891 19.8127 76.6191 20.7514 77.2791 21.426C77.9391 22.1007 78.8264 22.438 79.9411 22.438H80.3811Z" fill="#00DBFF"/>
<path d="M65.512 24.11C64.236 24.11 63.1067 23.8607 62.124 23.362C61.1413 22.8633 60.3713 22.1153 59.814 21.118C59.2713 20.106 59 18.8813 59 17.444V15.156C59 13.7333 59.2787 12.5233 59.836 11.526C60.3933 10.514 61.1633 9.75866 62.146 9.25999C63.1287 8.74666 64.2507 8.48999 65.512 8.48999H65.952C67.8293 8.48999 69.3327 8.97399 70.462 9.94199C71.5913 10.8953 72.178 12.274 72.222 14.078H70.858C70.6673 14.078 70.5207 14.0413 70.418 13.968C70.3153 13.88 70.2347 13.726 70.176 13.506C69.8533 11.3207 68.4453 10.228 65.952 10.228H65.512C64.148 10.228 63.0553 10.6387 62.234 11.46C61.4127 12.2667 61.002 13.506 61.002 15.178V17.422C61.002 19.0793 61.4127 20.3187 62.234 21.14C63.0553 21.9613 64.148 22.372 65.512 22.372H65.952C68.416 22.372 69.824 21.2793 70.176 19.094C70.2347 18.874 70.3153 18.7273 70.418 18.654C70.5207 18.566 70.6673 18.522 70.858 18.522H72.222C72.1193 20.326 71.5033 21.712 70.374 22.68C69.2447 23.6333 67.7707 24.11 65.952 24.11H65.512Z" fill="#00DBFF"/>
<rect x="44" y="3" width="2" height="26" fill="#00DBFF" fill-opacity="0.25"/>
<path d="M28.2387 16.5681C28.092 17.1213 27.7458 17.6234 27.2371 18.0174C25.811 19.123 24.2388 20.0991 22.5629 20.9169C20.8878 21.7357 19.1021 22.3995 17.2572 22.8905C16.9291 22.9773 16.5903 23.0215 16.2473 23.0215C15.9052 23.0215 15.5655 22.9773 15.2383 22.8905C13.3925 22.3995 11.6078 21.7357 9.9326 20.9169C8.25667 20.0991 6.68459 19.123 5.2584 18.0174C4.7489 17.6234 4.40276 17.1213 4.25687 16.5681H4.25594C4.15871 16.1962 4.15871 15.8038 4.25594 15.432H4.25687C4.40276 14.8779 4.7489 14.3766 5.2584 13.9826C6.68459 12.8771 8.25667 11.901 9.9326 11.0831C11.6078 10.2644 13.3925 9.60064 15.2383 9.10869C15.5655 9.02272 15.9052 8.97845 16.2473 8.97845C16.5903 8.97845 16.9291 9.02272 17.2572 9.10869C19.1021 9.60064 20.8878 10.2644 22.5629 11.0831C24.2388 11.901 25.811 12.8771 27.2371 13.9826C27.7458 14.3766 28.092 14.8779 28.2387 15.432C28.3369 15.8038 28.3369 16.1962 28.2387 16.5681ZM28.599 6.69771C28.4349 6.07733 28.0417 5.51648 27.4869 5.08672C24.5826 2.83403 21.1269 1.1472 17.3676 0.145597C17.0033 0.0485306 16.6257 0 16.2473 0C15.8697 0 15.4922 0.0485306 15.1278 0.145597C11.3679 1.1472 7.91291 2.83403 5.00866 5.08672C4.45381 5.51648 4.05983 6.07733 3.89658 6.69771C3.46375 8.33344 3.2478 10.0006 3.2478 11.667V12.7427V15.9996V19.2574V20.3323C3.2478 21.9995 3.46375 23.6667 3.89658 25.3015C4.05983 25.9228 4.45381 26.4828 5.00866 26.9134C7.91291 29.1652 11.3679 30.8528 15.1278 31.8545C15.4922 31.9515 15.8697 32 16.2473 32C16.6257 32 17.0033 31.9515 17.3676 31.8545C21.1269 30.8528 24.5826 29.1652 27.4869 26.9134C28.0417 26.4828 28.4349 25.9228 28.599 25.3015C29.0319 23.6667 29.2478 21.9995 29.2478 20.3323V19.2574V15.9996V12.7427V11.667C29.2478 10.0006 29.0319 8.33344 28.599 6.69771Z" fill="#00DBFF"/>
</svg>
