<svg width="16" height="16" viewBox="0 0 16 16" fill="none" xmlns="http://www.w3.org/2000/svg">
<path d="M4.25 2.16667H11C11.8203 2.16667 12.5 2.84636 12.5 3.66667V12.6667C12.5 13.5104 11.8203 14.1667 11 14.1667H4.25C3.40625 14.1667 2.75 13.5104 2.75 12.6667V3.66667C2.75 2.84636 3.40625 2.16667 4.25 2.16667ZM6.875 8.91667C5.82031 8.91667 5 9.76042 5 10.7917C5 11.0026 5.16406 11.1667 5.375 11.1667H9.875C10.0625 11.1667 10.25 11.0026 10.25 10.7917C10.25 9.76042 9.40625 8.91667 8.375 8.91667H6.875ZM6.125 6.66667C6.125 7.20573 6.40625 7.69792 6.875 7.97917C7.32031 8.23698 7.90625 8.23698 8.375 7.97917C8.82031 7.69792 9.125 7.20573 9.125 6.66667C9.125 6.15105 8.82031 5.65886 8.375 5.37761C7.90625 5.1198 7.32031 5.1198 6.875 5.37761C6.40625 5.65886 6.125 6.15105 6.125 6.66667ZM14 4.04167V5.54167C14 5.75261 13.8125 5.91667 13.625 5.91667C13.4141 5.91667 13.25 5.75261 13.25 5.54167V4.04167C13.25 3.85417 13.4141 3.66667 13.625 3.66667C13.8125 3.66667 14 3.85417 14 4.04167ZM13.625 6.66667C13.8125 6.66667 14 6.85417 14 7.04167V8.54167C14 8.75261 13.8125 8.91667 13.625 8.91667C13.4141 8.91667 13.25 8.75261 13.25 8.54167V7.04167C13.25 6.85417 13.4141 6.66667 13.625 6.66667ZM14 10.0417V11.5417C14 11.7526 13.8125 11.9167 13.625 11.9167C13.4141 11.9167 13.25 11.7526 13.25 11.5417V10.0417C13.25 9.85417 13.4141 9.66667 13.625 9.66667C13.8125 9.66667 14 9.85417 14 10.0417Z" fill="#002233"/>
</svg>
