<svg width="16" height="16" viewBox="0 0 16 16" fill="none" xmlns="http://www.w3.org/2000/svg">
<path d="M13.9279 7.69584C12.7981 5.49146 10.5614 4 8.00037 4C5.43932 4 3.20202 5.4925 2.07285 7.69605C2.0252 7.79032 2.00037 7.89448 2.00037 8.00011C2.00037 8.10575 2.0252 8.2099 2.07285 8.30418C3.20265 10.5086 5.43932 12 8.00037 12C10.5614 12 12.7987 10.5075 13.9279 8.30397C13.9755 8.20969 14.0004 8.10554 14.0004 7.9999C14.0004 7.89427 13.9755 7.79011 13.9279 7.69584V7.69584ZM8.00037 11C7.40702 11 6.827 10.8241 6.33365 10.4944C5.8403 10.1648 5.45579 9.69624 5.22872 9.14806C5.00166 8.59988 4.94225 7.99668 5.058 7.41474C5.17376 6.83279 5.45948 6.29824 5.87904 5.87868C6.2986 5.45912 6.83315 5.1734 7.41509 5.05765C7.99704 4.94189 8.60024 5.0013 9.14842 5.22836C9.6966 5.45543 10.1651 5.83995 10.4948 6.33329C10.8244 6.82664 11.0004 7.40666 11.0004 8.00001C11.0006 8.39403 10.9231 8.78422 10.7724 9.14829C10.6217 9.51235 10.4007 9.84315 10.1221 10.1218C9.8435 10.4004 9.51271 10.6213 9.14865 10.772C8.78458 10.9227 8.39439 11.0002 8.00037 11V11ZM8.00037 6C7.82185 6.0025 7.64449 6.02906 7.47307 6.07896C7.61437 6.27098 7.68217 6.50727 7.66419 6.74499C7.64621 6.98271 7.54363 7.20612 7.37505 7.37469C7.20648 7.54327 6.98307 7.64585 6.74535 7.66383C6.50763 7.68182 6.27134 7.61401 6.07932 7.47272C5.96998 7.87555 5.98972 8.30252 6.13575 8.69355C6.28179 9.08458 6.54678 9.41996 6.89341 9.6525C7.24004 9.88504 7.65087 10.003 8.06807 9.98984C8.48527 9.97667 8.88783 9.83299 9.21909 9.57903C9.55036 9.32508 9.79364 8.97364 9.91471 8.57417C10.0358 8.17471 10.0285 7.74734 9.89397 7.35221C9.75943 6.95708 9.50436 6.6141 9.16467 6.37153C8.82498 6.12896 8.41777 5.99902 8.00037 6V6Z" fill="#002233"/>
</svg>
