<svg width="16" height="16" viewBox="0 0 16 16" fill="none" xmlns="http://www.w3.org/2000/svg">
<path d="M10.426 2.66666C9.88438 3.16927 9.39531 3.69765 8.96198 4.22838C8.25208 3.25052 7.37188 2.25859 6.375 1.33333C3.81615 3.70755 2 6.80104 2 8.66666C2 11.9805 4.61172 14.6667 7.83333 14.6667C11.0549 14.6667 13.6667 11.9805 13.6667 8.66666C13.6667 7.27942 12.313 4.41822 10.426 2.66666V2.66666ZM9.91901 11.5378C9.35495 11.9325 8.65938 12.1667 7.90781 12.1667C6.02891 12.1667 4.5 10.9234 4.5 8.90494C4.5 7.89947 5.13307 7.01354 6.39557 5.49999C6.57604 5.70781 8.96927 8.76406 8.96927 8.76406L10.4961 7.02239C10.6039 7.20078 10.7021 7.37525 10.7896 7.54244C11.5018 8.90156 11.2013 10.6406 9.91901 11.5378V11.5378Z" fill="#002233"/>
</svg>
