<svg width="16" height="16" viewBox="0 0 16 16" fill="none" xmlns="http://www.w3.org/2000/svg">
<path d="M13.25 2.91667V6.38542C13.6719 6.59635 14 7.13542 14 7.79167C14 8.44792 13.6719 9.01042 13.25 9.22136V12.6667C13.25 12.9714 13.0625 13.2526 12.7813 13.3698C12.5 13.487 12.1719 13.4167 11.9609 13.2057L10.9297 12.1745C9.80469 11.0495 8.28125 10.4167 6.6875 10.4167H6.5V13.4167C6.5 13.8385 6.14844 14.1667 5.75 14.1667H4.25C3.82813 14.1667 3.5 13.8385 3.5 13.4167V10.4167C2.65625 10.4167 2 9.76042 2 8.91667V6.66667C2 5.84635 2.65625 5.16667 3.5 5.16667H5.75H6.5H6.6875C8.28125 5.16667 9.80469 4.53385 10.9297 3.40885L11.9609 2.40104C12.1719 2.1901 12.5 2.11979 12.7813 2.23698C13.0625 2.35417 13.25 2.63542 13.25 2.91667ZM11.75 4.72136C10.3672 5.98698 8.5625 6.66667 6.6875 6.66667H6.5V8.91667H6.6875C8.5625 8.91667 10.3672 9.61979 11.75 10.8854V7.79167V4.72136Z" fill="#002233"/>
</svg>
