<svg width="16" height="16" viewBox="0 0 16 16" fill="none" xmlns="http://www.w3.org/2000/svg">
<path d="M7.99996 8C9.68329 8 11.0476 6.65703 11.0476 5C11.0476 3.34297 9.68329 2 7.99996 2C6.31663 2 4.95234 3.34297 4.95234 5C4.95234 6.65703 6.31663 8 7.99996 8ZM10.1333 8.75H9.73567C9.2071 8.98906 8.61901 9.125 7.99996 9.125C7.38091 9.125 6.7952 8.98906 6.26425 8.75H5.86663C4.09996 8.75 2.66663 10.1609 2.66663 11.9V12.875C2.66663 13.4961 3.17853 14 3.80948 14H12.1904C12.8214 14 13.3333 13.4961 13.3333 12.875V11.9C13.3333 10.1609 11.9 8.75 10.1333 8.75Z" fill="#002233"/>
</svg>
