<svg width="16" height="16" viewBox="0 0 16 16" fill="none" xmlns="http://www.w3.org/2000/svg">
<path d="M4.5553 6.47518C4.67317 6.47518 4.7864 6.52171 4.86975 6.60506C4.95309 6.68841 4.99963 6.80165 4.99963 6.91951V11.8082C4.99962 11.926 4.95309 12.0393 4.86975 12.1226C4.78641 12.2059 4.67311 12.2525 4.5553 12.2525H3.11096C2.99313 12.2525 2.87983 12.206 2.79651 12.1226C2.71319 12.0393 2.66664 11.926 2.66663 11.8082V6.91951C2.66663 6.80173 2.71328 6.68839 2.79651 6.60506C2.87983 6.52174 2.99313 6.47521 3.11096 6.47518H4.5553ZM8.29553 2.6744C8.72835 2.61467 9.28137 2.88205 9.5426 3.81502C9.63642 4.4767 9.55733 5.15134 9.31213 5.77303C9.30671 5.78955 9.30465 5.8076 9.30725 5.82479C9.30995 5.84212 9.31748 5.85939 9.32776 5.87361C9.33797 5.88762 9.3514 5.8989 9.36682 5.90682C9.38243 5.91482 9.40006 5.91948 9.4176 5.91951H12.2223C12.368 5.91953 12.5124 5.94777 12.6471 6.0035C12.7818 6.0593 12.9043 6.14162 13.0074 6.24471C13.1106 6.34786 13.1928 6.47029 13.2487 6.60506C13.3044 6.73972 13.3336 6.88411 13.3336 7.02986C13.3336 7.22678 13.2805 7.42036 13.1813 7.59041C13.0819 7.76049 12.9397 7.90186 12.7682 7.99861C12.8317 8.11592 12.8714 8.24475 12.8844 8.37752C12.8974 8.51039 12.8831 8.64459 12.8434 8.77205C12.8037 8.89943 12.739 9.01775 12.653 9.11971C12.5668 9.22174 12.4605 9.30628 12.3414 9.36678C12.4574 9.60277 12.4763 9.87513 12.3932 10.1246C12.31 10.374 12.1315 10.5806 11.8971 10.6998C11.9648 10.8374 11.9998 10.9888 11.9996 11.1422C11.9996 11.4311 11.8696 11.9195 10.9996 11.9195H8.11096C7.49641 11.9227 6.88366 11.8527 6.28577 11.7105C6.14977 11.6816 6.00498 11.6519 5.84631 11.6217C5.79574 11.6118 5.7502 11.5843 5.71741 11.5445C5.68462 11.5047 5.66661 11.4545 5.66663 11.4029V6.90682C5.66666 6.87108 5.67548 6.83596 5.69202 6.80428C5.7087 6.77247 5.7328 6.74464 5.76233 6.7242C6.609 6.13976 7.5553 4.80597 7.5553 3.58553C7.54695 3.36987 7.61752 3.15837 7.75354 2.9908C7.88963 2.82317 8.08265 2.71051 8.29553 2.6744ZM3.99963 10.6969C3.93385 10.6969 3.86978 10.717 3.81506 10.7535C3.76025 10.7901 3.71725 10.842 3.69202 10.9029C3.66682 10.9638 3.66061 11.0307 3.67346 11.0953C3.68632 11.16 3.71766 11.2196 3.76428 11.2662C3.81089 11.3128 3.87056 11.3442 3.93518 11.357C3.99978 11.3698 4.06672 11.3637 4.12756 11.3385C4.18847 11.3132 4.24035 11.2702 4.27698 11.2154C4.3135 11.1607 4.33352 11.0966 4.33362 11.0308C4.33362 10.9425 4.29843 10.857 4.23596 10.7945C4.17345 10.732 4.08804 10.6969 3.99963 10.6969Z" fill="#002233"/>
</svg>
