<svg width="20" height="20" viewBox="0 0 20 20" fill="none" xmlns="http://www.w3.org/2000/svg">
<path d="M17.5 10C17.5 14.1421 14.1421 17.5 10 17.5C5.85785 17.5 2.5 14.1421 2.5 10C2.5 5.85785 5.85785 2.5 10 2.5C14.1421 2.5 17.5 5.85785 17.5 10ZM9.13248 13.9712L14.697 8.40667C14.8859 8.21772 14.8859 7.91134 14.697 7.72239L14.0127 7.0381C13.8238 6.84912 13.5174 6.84912 13.3284 7.0381L8.79032 11.5761L6.6716 9.45743C6.48265 9.26848 6.17627 9.26848 5.98729 9.45743L5.303 10.1417C5.11405 10.3307 5.11405 10.637 5.303 10.826L8.44817 13.9712C8.63715 14.1601 8.9435 14.1601 9.13248 13.9712V13.9712Z" fill="#0077B2"/>
</svg>
