<svg width="20" height="20" viewBox="0 0 20 20" fill="none" xmlns="http://www.w3.org/2000/svg">
<path d="M12.5002 15.625V16.6667C12.5002 17.0833 12.0835 17.5 11.6668 17.5H4.5835C3.75016 17.5 3.3335 17.0833 3.3335 16.25V5.83333C3.3335 5.41667 3.75016 5 4.16683 5H6.19064V13.9844C6.19064 14.889 6.93829 15.625 7.85731 15.625H12.5002ZM12.8573 5.54687V2.5H7.85731C7.46281 2.5 7.14302 2.81479 7.14302 3.20312V13.9844C7.14302 14.3727 7.46281 14.6875 7.85731 14.6875H15.9525C16.347 14.6875 16.6668 14.3727 16.6668 13.9844V6.25H13.5716C13.1787 6.25 12.8573 5.93359 12.8573 5.54687ZM16.4576 4.63782L14.4951 2.70593C14.3611 2.57407 14.1794 2.5 13.99 2.5H13.8097V5.3125H16.6668V5.13499C16.6668 4.94852 16.5916 4.76968 16.4576 4.63782Z" fill="#005580"/>
</svg>
