<svg width="24" height="24" viewBox="0 0 24 24" fill="none" xmlns="http://www.w3.org/2000/svg">
<path d="M10.0312 18.4375V12.8125C10.0312 12.6719 9.89062 12.5312 9.75 12.5312C9.57422 12.5312 9.46875 12.6719 9.46875 12.8125V18.4375C9.46875 18.6133 9.57422 18.7188 9.75 18.7188C9.89062 18.7188 10.0312 18.6133 10.0312 18.4375ZM9.75 11.125C10.6641 11.125 11.4375 11.8984 11.4375 12.8125V18.4375C11.4375 19.3867 10.6641 20.125 9.75 20.125C8.80078 20.125 8.0625 19.3867 8.0625 18.4375V12.8125C8.0625 11.8984 8.80078 11.125 9.75 11.125ZM5.53125 18.4375V16.1875C5.53125 16.0469 5.39062 15.9062 5.25 15.9062C5.07422 15.9062 4.96875 16.0469 4.96875 16.1875V18.4375C4.96875 18.6133 5.07422 18.7188 5.25 18.7188C5.39062 18.7188 5.53125 18.6133 5.53125 18.4375ZM5.25 14.5C6.16406 14.5 6.9375 15.2734 6.9375 16.1875V18.4375C6.9375 19.3867 6.16406 20.125 5.25 20.125C4.30078 20.125 3.5625 19.3867 3.5625 18.4375V16.1875C3.5625 15.2734 4.30078 14.5 5.25 14.5ZM14.5312 15.0625C14.5312 14.9219 14.3906 14.7812 14.25 14.7812C14.0742 14.7812 13.9688 14.9219 13.9688 15.0625V18.4375C13.9688 18.6133 14.0742 18.7188 14.25 18.7188C14.3906 18.7188 14.5312 18.6133 14.5312 18.4375V15.0625ZM12.5625 15.0625C12.5625 14.1484 13.3008 13.375 14.25 13.375C15.1641 13.375 15.9375 14.1484 15.9375 15.0625V18.4375C15.9375 19.3867 15.1641 20.125 14.25 20.125C13.3008 20.125 12.5625 19.3867 12.5625 18.4375V15.0625ZM19.0312 18.4375V12.8125C19.0312 12.6719 18.8906 12.5312 18.75 12.5312C18.5742 12.5312 18.4688 12.6719 18.4688 12.8125V18.4375C18.4688 18.6133 18.5742 18.7188 18.75 18.7188C18.8906 18.7188 19.0312 18.6133 19.0312 18.4375ZM18.75 11.125C19.6641 11.125 20.4375 11.8984 20.4375 12.8125V18.4375C20.4375 19.3867 19.6641 20.125 18.75 20.125C17.8008 20.125 17.0625 19.3867 17.0625 18.4375V12.8125C17.0625 11.8984 17.8008 11.125 18.75 11.125Z" fill="white"/>
<path d="M14.7771 10.9492L20.6833 5.88672C21.0349 5.57031 21.07 5.04297 20.7888 4.69141C20.4724 4.33984 19.945 4.30469 19.5935 4.58594L14.2497 9.19141L10.2771 5.71094C9.99581 5.46484 9.57394 5.42969 9.25753 5.64062L3.35128 9.57812C2.96456 9.85938 2.8591 10.3867 3.14035 10.7734C3.38644 11.1602 3.91378 11.2656 4.3005 10.9844L9.67941 7.43359L13.6872 10.9492C14.0036 11.1953 14.4607 11.1953 14.7771 10.9492Z" fill="#00DBFF"/>
</svg>
