<svg width="20" height="20" viewBox="0 0 20 20" fill="none" xmlns="http://www.w3.org/2000/svg">
<path d="M10.2687 8.06443C11.3386 8.06443 12.2042 8.93003 12.2042 9.99992C12.2042 11.0698 11.3386 11.9354 10.2687 11.9354C9.19884 11.9354 8.33325 11.0698 8.33325 9.99992C8.33325 8.93003 9.19884 8.06443 10.2687 8.06443ZM8.33325 5.26874C8.33325 6.33863 9.19884 7.20422 10.2687 7.20422C11.3386 7.20422 12.2042 6.33863 12.2042 5.26874C12.2042 4.19884 11.3386 3.33325 10.2687 3.33325C9.19884 3.33325 8.33325 4.19884 8.33325 5.26874ZM8.33325 14.7311C8.33325 15.801 9.19884 16.6666 10.2687 16.6666C11.3386 16.6666 12.2042 15.801 12.2042 14.7311C12.2042 13.6612 11.3386 12.7956 10.2687 12.7956C9.19884 12.7956 8.33325 13.6612 8.33325 14.7311Z" fill="#0077B2"/>
</svg>
