<svg width="16" height="16" viewBox="0 0 16 16" fill="none" xmlns="http://www.w3.org/2000/svg">
<path d="M8.88921 4.875V1.33333H3.33366C2.96421 1.33333 2.66699 1.61198 2.66699 1.95833V14.0417C2.66699 14.388 2.96421 14.6667 3.33366 14.6667H12.667C13.0364 14.6667 13.3337 14.388 13.3337 14.0417V5.5H9.55588C9.18921 5.5 8.88921 5.21875 8.88921 4.875ZM10.667 11.0208C10.667 11.1927 10.517 11.3333 10.3337 11.3333H5.66699C5.48366 11.3333 5.33366 11.1927 5.33366 11.0208V10.8125C5.33366 10.6406 5.48366 10.5 5.66699 10.5H10.3337C10.517 10.5 10.667 10.6406 10.667 10.8125V11.0208ZM10.667 9.35417C10.667 9.52604 10.517 9.66667 10.3337 9.66667H5.66699C5.48366 9.66667 5.33366 9.52604 5.33366 9.35417V9.14583C5.33366 8.97396 5.48366 8.83333 5.66699 8.83333H10.3337C10.517 8.83333 10.667 8.97396 10.667 9.14583V9.35417ZM10.667 7.47917V7.6875C10.667 7.85937 10.517 8 10.3337 8H5.66699C5.48366 8 5.33366 7.85937 5.33366 7.6875V7.47917C5.33366 7.30729 5.48366 7.16667 5.66699 7.16667H10.3337C10.517 7.16667 10.667 7.30729 10.667 7.47917ZM13.3337 4.50781V4.66667H9.7781V1.33333H9.94755C10.1253 1.33333 10.2948 1.39844 10.4198 1.51562L13.1392 4.06771C13.2642 4.1849 13.3337 4.34375 13.3337 4.50781Z" fill="#002233"/>
</svg>
