<svg width="16" height="16" viewBox="0 0 16 16" fill="none" xmlns="http://www.w3.org/2000/svg">
<path d="M2.66667 2C2.29848 2 2 2.29848 2 2.66667V6.66667C2 7.03486 2.29848 7.33333 2.66667 7.33333H6.66667C7.03486 7.33333 7.33333 7.03486 7.33333 6.66667V2.66667C7.33333 2.29848 7.03486 2 6.66667 2H2.66667Z" fill="#002233"/>
<path d="M9.33333 2C8.96514 2 8.66667 2.29848 8.66667 2.66667V6.66667C8.66667 7.03486 8.96514 7.33333 9.33333 7.33333H13.3333C13.7015 7.33333 14 7.03486 14 6.66667V2.66667C14 2.29848 13.7015 2 13.3333 2H9.33333Z" fill="#002233"/>
<path d="M2 9.33333C2 8.96514 2.29848 8.66667 2.66667 8.66667H6.66667C7.03486 8.66667 7.33333 8.96514 7.33333 9.33333V13.3333C7.33333 13.7015 7.03486 14 6.66667 14H2.66667C2.29848 14 2 13.7015 2 13.3333V9.33333Z" fill="#002233"/>
<path d="M10.4445 9.33333C10.4445 8.96514 10.743 8.66667 11.1111 8.66667H11.5556C11.9238 8.66667 12.2223 8.96514 12.2223 9.33333V10.4446H13.3333C13.7015 10.4446 14 10.743 14 11.1112V11.5557C14 11.9239 13.7015 12.2223 13.3333 12.2223H12.2223V13.3333C12.2223 13.7015 11.9238 14 11.5556 14H11.1111C10.743 14 10.4445 13.7015 10.4445 13.3333V12.2223H9.33333C8.96514 12.2223 8.66667 11.9239 8.66667 11.5557V11.1112C8.66667 10.743 8.96514 10.4446 9.33333 10.4446H10.4445V9.33333Z" fill="#002233"/>
</svg>
