<svg width="24" height="24" viewBox="0 0 24 24" fill="none" xmlns="http://www.w3.org/2000/svg">
<path d="M6.375 7.92578V10.8438L5.84766 12.7422C5.74219 13.0938 5.56641 13.375 5.32031 13.6211L2.15625 16.7852C1.83984 17.1367 1.3125 17.1367 0.996094 16.7852C0.644531 16.4688 0.644531 15.9414 0.996094 15.5898L4.125 12.4609C4.16016 12.4258 4.19531 12.3555 4.23047 12.3203L4.96875 9.47266C5.17969 8.76953 5.70703 8.17188 6.375 7.92578Z" fill="white"/>
<path d="M12.5625 10H16.2188C17.5898 10 18.75 11.1602 18.75 12.5312C18.75 13.4453 18.2578 14.2188 17.5898 14.6758V15.0625C17.5898 16.2227 16.8516 17.207 15.7969 17.5234C15.4805 18.4023 14.6367 19 13.6523 19H9.64453C9.57422 19 9.50391 19.0352 9.43359 19.1055L7.5 21.0039C7.18359 21.3555 6.65625 21.3555 6.33984 21.0039C5.98828 20.6875 5.98828 20.1602 6.33984 19.8086L8.23828 17.9102C8.625 17.5234 9.11719 17.3125 9.64453 17.3125H13.6875C13.9688 17.3125 14.25 17.0664 14.25 16.75C14.25 16.293 14.6016 15.9062 15.0938 15.9062C15.5508 15.9062 15.9375 15.5547 15.9375 15.0625C15.9375 14.9219 15.8672 14.7812 15.7969 14.6406C15.6562 14.3945 15.6562 14.1133 15.7617 13.8672C15.8672 13.6211 16.0781 13.4453 16.3594 13.375C16.7461 13.3047 17.0625 12.9531 17.0625 12.5312C17.0625 12.0742 16.6758 11.6875 16.2188 11.6875H12.5625V10Z" fill="white"/>
<path d="M17.5898 3.53125C17.9062 3.17969 18.4336 3.17969 18.7852 3.53125C19.1016 3.84766 19.1016 4.375 18.7852 4.69141L16.8516 6.625C16.4648 7.01172 15.9727 7.1875 15.4453 7.1875H10.5938C9.78516 7.1875 9.1875 7.82031 9.1875 8.59375V11.9688C9.1875 12.4609 9.53906 12.8125 10.0312 12.8125C10.4883 12.8125 10.875 12.4609 10.875 11.9688V9.15625C10.875 8.69922 11.2266 8.3125 11.7188 8.3125C12.1643 8.3125 12.5418 8.68013 12.5605 9.12207V11.998C12.5446 13.3906 11.3928 14.5 10.0312 14.5C8.625 14.5 7.5 13.375 7.5 11.9688V8.59375C7.5 6.90625 8.87109 5.5 10.5938 5.5H15.4453C15.5156 5.5 15.5859 5.5 15.6562 5.42969L17.5898 3.53125Z" fill="#00DBFF"/>
<path d="M21.8086 7.75C22.125 7.39844 22.6523 7.39844 23.0039 7.75C23.3203 8.06641 23.3203 8.59375 23.0039 8.91016L19.8398 12.0742C19.7344 11.4414 19.5234 10.8789 19.1367 10.3867L21.8086 7.75Z" fill="#00DBFF"/>
</svg>
