<svg width="20" height="20" viewBox="0 0 20 20" fill="none" xmlns="http://www.w3.org/2000/svg">
<path d="M10 2.5C5.85816 2.5 2.5 5.85936 2.5 10C2.5 14.1431 5.85816 17.5 10 17.5C14.1418 17.5 17.5 14.1431 17.5 10C17.5 5.85936 14.1418 2.5 10 2.5ZM10 5.82661C10.7015 5.82661 11.2702 6.39528 11.2702 7.09677C11.2702 7.79827 10.7015 8.36694 10 8.36694C9.29851 8.36694 8.72984 7.79827 8.72984 7.09677C8.72984 6.39528 9.29851 5.82661 10 5.82661ZM11.6935 13.5081C11.6935 13.7085 11.5311 13.871 11.3306 13.871H8.66935C8.46894 13.871 8.30645 13.7085 8.30645 13.5081V12.7823C8.30645 12.5818 8.46894 12.4194 8.66935 12.4194H9.03226V10.4839H8.66935C8.46894 10.4839 8.30645 10.3214 8.30645 10.121V9.39516C8.30645 9.19475 8.46894 9.03226 8.66935 9.03226H10.6048C10.8053 9.03226 10.9677 9.19475 10.9677 9.39516V12.4194H11.3306C11.5311 12.4194 11.6935 12.5818 11.6935 12.7823V13.5081Z" fill="#596B7A"/>
</svg>
