<svg width="20" height="20" viewBox="0 0 20 20" fill="none" xmlns="http://www.w3.org/2000/svg">
<path d="M14.5835 11.6667H13.7502C13.6397 11.6667 13.5337 11.7106 13.4555 11.7887C13.3774 11.8669 13.3335 11.9729 13.3335 12.0834V15H5.00016V6.66671H8.75016C8.86067 6.66671 8.96665 6.62281 9.04479 6.54467C9.12293 6.46653 9.16683 6.36055 9.16683 6.25004V5.41671C9.16683 5.3062 9.12293 5.20022 9.04479 5.12208C8.96665 5.04394 8.86067 5.00004 8.75016 5.00004H4.5835C4.25198 5.00004 3.93403 5.13174 3.69961 5.36616C3.46519 5.60058 3.3335 5.91852 3.3335 6.25004V15.4167C3.3335 15.7482 3.46519 16.0662 3.69961 16.3006C3.93403 16.535 4.25198 16.6667 4.5835 16.6667H13.7502C14.0817 16.6667 14.3996 16.535 14.634 16.3006C14.8685 16.0662 15.0002 15.7482 15.0002 15.4167V12.0834C15.0002 11.9729 14.9563 11.8669 14.8781 11.7887C14.8 11.7106 14.694 11.6667 14.5835 11.6667ZM15.6947 3.33337H11.5627C11.3693 3.33337 11.1838 3.4102 11.0471 3.54694C10.9103 3.68369 10.8335 3.86915 10.8335 4.06254V4.54978C10.8362 4.6455 10.8578 4.73975 10.8969 4.82714C10.9361 4.91453 10.9921 4.99335 11.0617 5.0591C11.1313 5.12486 11.2132 5.17625 11.3027 5.21035C11.3922 5.24445 11.4875 5.26059 11.5832 5.25785L13.3335 5.20837L6.85068 11.643L6.84912 11.6446C6.73192 11.7618 6.66608 11.9207 6.66608 12.0865C6.66608 12.2523 6.73192 12.4112 6.84912 12.5284L7.47256 13.1495L7.47412 13.1511C7.59161 13.2677 7.75058 13.333 7.91614 13.3326C8.0817 13.3321 8.24033 13.266 8.35719 13.1487L14.7918 6.66671L14.7429 8.41723V8.43754C14.7429 8.63093 14.8197 8.81639 14.9564 8.95314C15.0932 9.08988 15.2787 9.16671 15.472 9.16671H15.9377C16.131 9.16671 16.3165 9.08988 16.4533 8.95314C16.59 8.81639 16.6668 8.63093 16.6668 8.43754V4.30551C16.6668 4.04768 16.5644 3.80042 16.3821 3.61811C16.1998 3.4358 15.9525 3.33337 15.6947 3.33337Z" fill="#0077B2"/>
</svg>
