<svg width="24" height="24" viewBox="0 0 24 24" fill="none" xmlns="http://www.w3.org/2000/svg">
<path d="M11.9288 7.20998C9.37432 7.20998 7.31385 9.27045 7.31385 11.825C7.31385 14.3795 9.37432 16.4399 11.9288 16.4399C14.4833 16.4399 16.5438 14.3795 16.5438 11.825C16.5438 9.27045 14.4833 7.20998 11.9288 7.20998ZM11.9288 14.8253C10.278 14.8253 8.92849 13.4798 8.92849 11.825C8.92849 10.1701 10.274 8.82462 11.9288 8.82462C13.5836 8.82462 14.9292 10.1701 14.9292 11.825C14.9292 13.4798 13.5796 14.8253 11.9288 14.8253V14.8253ZM17.809 7.0212C17.809 7.61966 17.327 8.09763 16.7326 8.09763C16.1341 8.09763 15.6561 7.61565 15.6561 7.0212C15.6561 6.42676 16.1381 5.94478 16.7326 5.94478C17.327 5.94478 17.809 6.42676 17.809 7.0212ZM20.8656 8.11369C20.7973 6.67177 20.4679 5.39451 19.4116 4.34219C18.3593 3.28986 17.082 2.96051 15.6401 2.88821C14.154 2.80386 9.69966 2.80386 8.21355 2.88821C6.77564 2.95649 5.49838 3.28585 4.44204 4.33817C3.3857 5.3905 3.06036 6.66775 2.98806 8.10968C2.90372 9.59579 2.90372 14.0501 2.98806 15.5362C3.05635 16.9781 3.3857 18.2554 4.44204 19.3077C5.49838 20.36 6.77162 20.6894 8.21355 20.7617C9.69966 20.846 14.154 20.846 15.6401 20.7617C17.082 20.6934 18.3593 20.3641 19.4116 19.3077C20.4639 18.2554 20.7933 16.9781 20.8656 15.5362C20.9499 14.0501 20.9499 9.5998 20.8656 8.11369V8.11369ZM18.9457 17.1308C18.6324 17.918 18.0259 18.5245 17.2346 18.8418C16.0498 19.3117 13.2382 19.2033 11.9288 19.2033C10.6194 19.2033 7.80386 19.3077 6.62301 18.8418C5.83577 18.5285 5.22928 17.922 4.91197 17.1308C4.44204 15.9459 4.55049 13.1343 4.55049 11.825C4.55049 10.5156 4.44606 7.69999 4.91197 6.51914C5.22526 5.7319 5.83176 5.12541 6.62301 4.8081C7.80788 4.33817 10.6194 4.44662 11.9288 4.44662C13.2382 4.44662 16.0538 4.34219 17.2346 4.8081C18.0219 5.12139 18.6284 5.72789 18.9457 6.51914C19.4156 7.70401 19.3072 10.5156 19.3072 11.825C19.3072 13.1343 19.4156 15.9499 18.9457 17.1308Z" fill="#002233"/>
</svg>
