<svg width="24" height="24" viewBox="0 0 24 24" fill="none" xmlns="http://www.w3.org/2000/svg">
<path d="M18.75 4.9375H13.125C12.8086 4.9375 12.5625 5.21875 12.5625 5.5V19C12.5625 19.3164 12.8086 19.5625 13.125 19.5625H18.75C19.0312 19.5625 19.3125 19.3164 19.3125 19V5.5C19.3125 5.21875 19.0312 4.9375 18.75 4.9375ZM13.125 3.25H18.75C19.9805 3.25 21 4.26953 21 5.5V19C21 20.2656 19.9805 21.25 18.75 21.25H13.125C11.8594 21.25 10.875 20.2656 10.875 19V5.5C10.875 4.26953 11.8594 3.25 13.125 3.25ZM9.75 7.75V9.4375H5.53125C5.03906 9.4375 4.6875 9.82422 4.6875 10.2812V18.7188C4.6875 19.2109 5.03906 19.5625 5.53125 19.5625H9.78516C9.89062 20.2305 10.1719 20.793 10.5938 21.25H5.53125C4.125 21.25 3 20.125 3 18.7188V10.2812C3 8.91016 4.125 7.75 5.53125 7.75H9.75Z" fill="white"/>
<path d="M8.0625 14.5H6.9375C6.62109 14.5 6.375 14.7812 6.375 15.0625V16.1875C6.375 16.5039 6.62109 16.75 6.9375 16.75H8.0625C8.34375 16.75 8.625 16.5039 8.625 16.1875V15.0625C8.625 14.7812 8.34375 14.5 8.0625 14.5Z" fill="#00DBFF"/>
<path d="M14.8125 13.9375V15.0625C14.8125 15.3789 15.0586 15.625 15.375 15.625H16.5C16.7812 15.625 17.0625 15.3789 17.0625 15.0625V13.9375C17.0625 13.6562 16.7812 13.375 16.5 13.375H15.375C15.0586 13.375 14.8125 13.6562 14.8125 13.9375Z" fill="#00DBFF"/>
<path d="M8.0625 11.125H6.9375C6.62109 11.125 6.375 11.4062 6.375 11.6875V12.8125C6.375 13.1289 6.62109 13.375 6.9375 13.375H8.0625C8.34375 13.375 8.625 13.1289 8.625 12.8125V11.6875C8.625 11.4062 8.34375 11.125 8.0625 11.125Z" fill="#00DBFF"/>
<path d="M15.375 6.625C15.0586 6.625 14.8125 6.90625 14.8125 7.1875V8.3125C14.8125 8.62891 15.0586 8.875 15.375 8.875H16.5C16.7812 8.875 17.0625 8.62891 17.0625 8.3125V7.1875C17.0625 6.90625 16.7812 6.625 16.5 6.625H15.375Z" fill="#00DBFF"/>
<path d="M14.8125 11.6875C14.8125 12.0039 15.0586 12.25 15.375 12.25H16.5C16.7812 12.25 17.0625 12.0039 17.0625 11.6875V10.5625C17.0625 10.2812 16.7812 10 16.5 10H15.375C15.0586 10 14.8125 10.2812 14.8125 10.5625V11.6875Z" fill="#00DBFF"/>
</svg>
