<svg width="16" height="16" viewBox="0 0 16 16" fill="none" xmlns="http://www.w3.org/2000/svg">
<path d="M11.7068 7.37373L7.29257 2.95952C7.10504 2.77199 6.85068 2.66663 6.58547 2.66663H2.33301C1.78072 2.66663 1.33301 3.11433 1.33301 3.66663V7.91909C1.33301 8.1843 1.43837 8.43866 1.6259 8.62619L6.04011 13.0404C6.43061 13.4309 7.06378 13.4309 7.45432 13.0404L11.7068 8.78794C12.0973 8.39742 12.0973 7.76425 11.7068 7.37373V7.37373ZM3.66634 5.99996C3.11405 5.99996 2.66634 5.55225 2.66634 4.99996C2.66634 4.44767 3.11405 3.99996 3.66634 3.99996C4.21863 3.99996 4.66634 4.44767 4.66634 4.99996C4.66634 5.55225 4.21863 5.99996 3.66634 5.99996ZM14.3734 8.78794L10.121 13.0404C9.73047 13.4309 9.0973 13.4309 8.70678 13.0404L8.69928 13.0329L12.3255 9.40667C12.6797 9.05252 12.8747 8.58167 12.8747 8.08084C12.8747 7.58 12.6796 7.10915 12.3255 6.755L8.23711 2.66663H9.25214C9.51735 2.66663 9.7717 2.77199 9.95924 2.95952L14.3734 7.37373C14.764 7.76425 14.764 8.39742 14.3734 8.78794Z" fill="#002233"/>
</svg>
