<svg width="24" height="24" viewBox="0 0 24 24" fill="none" xmlns="http://www.w3.org/2000/svg">
<path d="M8.37891 5.8164V5.78125L5.84766 8.59375C5.70703 8.76953 5.49609 8.875 5.25 8.875C5.03906 8.91015 4.79297 8.80469 4.65234 8.6289L3.24609 7.22265C2.89453 6.90625 2.89453 6.3789 3.24609 6.02734C3.5625 5.71094 4.08984 5.71094 4.44141 6.02734L5.21484 6.83594L7.14844 4.65625C7.46484 4.33984 7.99219 4.30469 8.34375 4.62109C8.66016 4.9375 8.69531 5.46484 8.37891 5.8164ZM8.37891 11.4414V11.4062L5.84766 14.2187C5.70703 14.3945 5.49609 14.5 5.25 14.5C5.03906 14.5352 4.79297 14.4297 4.65234 14.2539L3.24609 12.8477C2.89453 12.5312 2.89453 12.0039 3.24609 11.6523C3.5625 11.3359 4.08984 11.3359 4.44141 11.6523L5.21484 12.4609L7.14844 10.2812C7.46484 9.96484 7.99219 9.92969 8.34375 10.2461C8.66016 10.5625 8.69531 11.0898 8.37891 11.4414ZM10.5938 7.46875C10.1016 7.46875 9.75 7.11719 9.75 6.625C9.75 6.16797 10.1016 5.78125 10.5938 5.78125H20.1562C20.6133 5.78125 21 6.16797 21 6.625C21 7.11719 20.6133 7.46875 20.1562 7.46875H10.5938ZM9.75 12.25C9.75 11.793 10.1016 11.4062 10.5938 11.4062H20.1562C20.6133 11.4062 21 11.793 21 12.25C21 12.7422 20.6133 13.0937 20.1562 13.0937H10.5938C10.1016 13.0937 9.75 12.7422 9.75 12.25Z" fill="white"/>
<path d="M9.46875 17.0312C8.97656 17.0312 8.625 17.418 8.625 17.875C8.625 18.3672 8.97656 18.7188 9.46875 18.7188H20.1562C20.6133 18.7188 21 18.3672 21 17.875C21 17.418 20.6133 17.0312 20.1562 17.0312H9.46875Z" fill="#00DBFF"/>
<path d="M5.25 19C5.84766 19 6.375 18.5078 6.375 17.875C6.375 17.2773 5.84766 16.75 5.25 16.75C4.61719 16.75 4.125 17.2773 4.125 17.875C4.125 18.5078 4.61719 19 5.25 19Z" fill="#00DBFF"/>
</svg>
