<svg width="107" height="32" viewBox="0 0 107 32" fill="none" xmlns="http://www.w3.org/2000/svg">
<path d="M89.5166 8.6001H90.7046C91.0859 8.6001 91.3573 8.73943 91.5186 9.0181L97.8106 19.7981L103.883 9.0621C104.059 8.7541 104.33 8.6001 104.697 8.6001H106.017V24.0001H104.059V12.1641L98.5806 21.8441H96.9526L91.4746 12.4941V24.0001H89.5166V8.6001Z" fill="#00DBFF"/>
<path d="M75.0146 9.2821C75.0146 8.82743 75.242 8.6001 75.6966 8.6001H80.7566C82.5753 8.6001 83.9686 9.01076 84.9366 9.8321C85.9193 10.6388 86.4107 11.7021 86.4107 13.0221V13.9241C86.4107 15.2441 86.0367 16.3001 85.2887 17.0921C84.5553 17.8841 83.4846 18.3754 82.0766 18.5661L86.4546 24.0001H84.5627C84.2253 24.0001 83.9467 23.8608 83.7267 23.5821L79.8766 18.6761H76.9946V24.0001H75.0146V9.2821ZM80.5366 16.9601C81.8126 16.9601 82.7733 16.7181 83.4186 16.2341C84.0786 15.7501 84.4086 14.9801 84.4086 13.9241V13.0221C84.4086 12.2448 84.0933 11.6068 83.4627 11.1081C82.8466 10.5948 81.9373 10.3381 80.7346 10.3381H76.9946V16.9601H80.5366Z" fill="#00DBFF"/>
<path d="M65.512 24.11C64.236 24.11 63.1067 23.8607 62.124 23.362C61.1413 22.8633 60.3713 22.1153 59.814 21.118C59.2713 20.106 59 18.8813 59 17.444V15.156C59 13.7333 59.2787 12.5233 59.836 11.526C60.3933 10.514 61.1633 9.75866 62.146 9.25999C63.1287 8.74666 64.2507 8.48999 65.512 8.48999H65.952C67.8293 8.48999 69.3327 8.97399 70.462 9.94199C71.5913 10.8953 72.178 12.274 72.222 14.078H70.858C70.6673 14.078 70.5207 14.0413 70.418 13.968C70.3153 13.88 70.2347 13.726 70.176 13.506C69.8533 11.3207 68.4453 10.228 65.952 10.228H65.512C64.148 10.228 63.0553 10.6387 62.234 11.46C61.4127 12.2667 61.002 13.506 61.002 15.178V17.422C61.002 19.0793 61.4127 20.3187 62.234 21.14C63.0553 21.9613 64.148 22.372 65.512 22.372H65.952C68.416 22.372 69.824 21.2793 70.176 19.094C70.2347 18.874 70.3153 18.7273 70.418 18.654C70.5207 18.566 70.6673 18.522 70.858 18.522H72.222C72.1193 20.326 71.5033 21.712 70.374 22.68C69.2447 23.6333 67.7707 24.11 65.952 24.11H65.512Z" fill="#00DBFF"/>
<rect x="44" y="3" width="2" height="26" fill="#00DBFF" fill-opacity="0.25"/>
<path d="M27.9909 16.5681C27.8442 17.1213 27.498 17.6234 26.9893 18.0174C25.5632 19.123 23.991 20.0991 22.3151 20.9169C20.64 21.7357 18.8543 22.3995 17.0094 22.8905C16.6813 22.9773 16.3425 23.0215 15.9995 23.0215C15.6574 23.0215 15.3177 22.9773 14.9905 22.8905C13.1447 22.3995 11.36 21.7357 9.6848 20.9169C8.00887 20.0991 6.43679 19.123 5.01059 18.0174C4.5011 17.6234 4.15496 17.1213 4.00907 16.5681H4.00814C3.91091 16.1962 3.91091 15.8038 4.00814 15.432H4.00907C4.15496 14.8779 4.5011 14.3766 5.01059 13.9826C6.43679 12.8771 8.00887 11.901 9.6848 11.0831C11.36 10.2644 13.1447 9.60064 14.9905 9.10869C15.3177 9.02272 15.6574 8.97845 15.9995 8.97845C16.3425 8.97845 16.6813 9.02272 17.0094 9.10869C18.8543 9.60064 20.64 10.2644 22.3151 11.0831C23.991 11.901 25.5632 12.8771 26.9893 13.9826C27.498 14.3766 27.8442 14.8779 27.9909 15.432C28.0891 15.8038 28.0891 16.1962 27.9909 16.5681ZM28.3512 6.69771C28.1871 6.07733 27.7939 5.51648 27.2391 5.08672C24.3348 2.83403 20.8791 1.1472 17.1198 0.145598C16.7555 0.0485315 16.3779 -7.7486e-07 15.9995 -7.7486e-07C15.6219 -7.7486e-07 15.2444 0.0485315 14.88 0.145598C11.1201 1.1472 7.66511 2.83403 4.76086 5.08672C4.206 5.51648 3.81203 6.07733 3.64877 6.69771C3.21595 8.33344 3 10.0006 3 11.667V12.7427V15.9996V19.2574V20.3323C3 21.9995 3.21595 23.6667 3.64877 25.3015C3.81203 25.9228 4.206 26.4828 4.76086 26.9134C7.66511 29.1652 11.1201 30.8528 14.88 31.8545C15.2444 31.9515 15.6219 32 15.9995 32C16.3779 32 16.7555 31.9515 17.1198 31.8545C20.8791 30.8528 24.3348 29.1652 27.2391 26.9134C27.7939 26.4828 28.1871 25.9228 28.3512 25.3015C28.7841 23.6667 29 21.9995 29 20.3323V19.2574V15.9996V12.7427V11.667C29 10.0006 28.7841 8.33344 28.3512 6.69771Z" fill="#00DBFF"/>
</svg>
