<svg width="16" height="16" viewBox="0 0 16 16" fill="none" xmlns="http://www.w3.org/2000/svg">
<path d="M13.0477 13.25H12.5715V2.5625C12.5715 2.25184 12.3157 2 12.0001 2H4.00008C3.68449 2 3.42865 2.25184 3.42865 2.5625V13.25H2.95246C2.79468 13.25 2.66675 13.3759 2.66675 13.5312V14H13.3334V13.5312C13.3334 13.3759 13.2055 13.25 13.0477 13.25ZM5.71437 3.78125C5.71437 3.62593 5.8423 3.5 6.00008 3.5H6.95246C7.11025 3.5 7.23818 3.62593 7.23818 3.78125V4.71875C7.23818 4.87407 7.11025 5 6.95246 5H6.00008C5.8423 5 5.71437 4.87407 5.71437 4.71875V3.78125ZM5.71437 6.03125C5.71437 5.87593 5.8423 5.75 6.00008 5.75H6.95246C7.11025 5.75 7.23818 5.87593 7.23818 6.03125V6.96875C7.23818 7.12407 7.11025 7.25 6.95246 7.25H6.00008C5.8423 7.25 5.71437 7.12407 5.71437 6.96875V6.03125ZM6.95246 9.5H6.00008C5.8423 9.5 5.71437 9.37407 5.71437 9.21875V8.28125C5.71437 8.12593 5.8423 8 6.00008 8H6.95246C7.11025 8 7.23818 8.12593 7.23818 8.28125V9.21875C7.23818 9.37407 7.11025 9.5 6.95246 9.5ZM8.76199 13.25H7.23818V11.2812C7.23818 11.1259 7.36611 11 7.52389 11H8.47627C8.63406 11 8.76199 11.1259 8.76199 11.2812V13.25ZM10.2858 9.21875C10.2858 9.37407 10.1579 9.5 10.0001 9.5H9.0477C8.88991 9.5 8.76199 9.37407 8.76199 9.21875V8.28125C8.76199 8.12593 8.88991 8 9.0477 8H10.0001C10.1579 8 10.2858 8.12593 10.2858 8.28125V9.21875ZM10.2858 6.96875C10.2858 7.12407 10.1579 7.25 10.0001 7.25H9.0477C8.88991 7.25 8.76199 7.12407 8.76199 6.96875V6.03125C8.76199 5.87593 8.88991 5.75 9.0477 5.75H10.0001C10.1579 5.75 10.2858 5.87593 10.2858 6.03125V6.96875ZM10.2858 4.71875C10.2858 4.87407 10.1579 5 10.0001 5H9.0477C8.88991 5 8.76199 4.87407 8.76199 4.71875V3.78125C8.76199 3.62593 8.88991 3.5 9.0477 3.5H10.0001C10.1579 3.5 10.2858 3.62593 10.2858 3.78125V4.71875Z" fill="#002233"/>
</svg>
