<svg width="16" height="16" viewBox="0 0 16 16" fill="none" xmlns="http://www.w3.org/2000/svg">
<path d="M9.5 9.7915C9.5 9.99869 9.33219 10.1665 9.125 10.1665H6.875C6.66781 10.1665 6.5 9.99869 6.5 9.7915V8.6665H2V12.0415C2 12.6415 2.525 13.1665 3.125 13.1665H12.875C13.475 13.1665 14 12.6415 14 12.0415V8.6665H9.5V9.7915ZM12.875 4.9165H11V3.7915C11 3.1915 10.475 2.6665 9.875 2.6665H6.125C5.525 2.6665 5 3.1915 5 3.7915V4.9165H3.125C2.525 4.9165 2 5.4415 2 6.0415V7.9165H14V6.0415C14 5.4415 13.475 4.9165 12.875 4.9165ZM9.5 4.9165H6.5V4.1665H9.5V4.9165Z" fill="#002233"/>
</svg>
