<svg width="16" height="16" viewBox="0 0 16 16" fill="none" xmlns="http://www.w3.org/2000/svg">
<path d="M8.00008 8C9.68341 8 11.0477 6.65703 11.0477 5C11.0477 3.34297 9.68341 2 8.00008 2C6.31675 2 4.95246 3.34297 4.95246 5C4.95246 6.65703 6.31675 8 8.00008 8ZM10.1334 8.75H9.7358C9.20722 8.98906 8.61913 9.125 8.00008 9.125C7.38103 9.125 6.79532 8.98906 6.26437 8.75H5.86675C4.10008 8.75 2.66675 10.1609 2.66675 11.9V12.875C2.66675 13.4961 3.17865 14 3.80961 14H12.1906C12.8215 14 13.3334 13.4961 13.3334 12.875V11.9C13.3334 10.1609 11.9001 8.75 10.1334 8.75Z" fill="#002233"/>
</svg>
