<svg width="20" height="20" viewBox="0 0 20 20" fill="none" xmlns="http://www.w3.org/2000/svg">
<path d="M15.8371 3.25513C14.2784 1.69263 12.2025 0.833252 9.99636 0.833252C5.44279 0.833252 1.73743 4.53861 1.73743 9.09218C1.73743 10.5468 2.1169 11.9679 2.83862 13.2216L1.66675 17.4999L6.04547 16.3504C7.25083 17.0088 8.60871 17.3548 9.99264 17.3548H9.99636C14.5462 17.3548 18.3334 13.6495 18.3334 9.0959C18.3334 6.8898 17.3959 4.81763 15.8371 3.25513V3.25513ZM9.99636 15.9635C8.76124 15.9635 7.55216 15.6324 6.49934 15.0074L6.25008 14.8585L3.65336 15.5394L4.34532 13.0059L4.18163 12.7455C3.49338 11.6517 3.13252 10.3905 3.13252 9.09218C3.13252 5.3087 6.21288 2.22834 10.0001 2.22834C11.8342 2.22834 13.5566 2.94263 14.8513 4.24099C16.1459 5.53935 16.942 7.26182 16.9383 9.0959C16.9383 12.8831 13.7798 15.9635 9.99636 15.9635V15.9635ZM13.7612 10.8221C13.5566 10.7179 12.541 10.2194 12.3513 10.1524C12.1615 10.0818 12.0239 10.0483 11.8862 10.2566C11.7486 10.4649 11.3542 10.9263 11.2315 11.0676C11.1124 11.2053 10.9897 11.2239 10.7851 11.1197C9.57225 10.5133 8.77612 10.0371 7.97627 8.66435C7.76422 8.29977 8.18833 8.32581 8.58267 7.53712C8.64963 7.39947 8.61615 7.28042 8.56407 7.17626C8.51199 7.07209 8.09904 6.05647 7.92791 5.64352C7.7605 5.24173 7.58937 5.29754 7.46288 5.2901C7.34383 5.28266 7.20618 5.28266 7.06853 5.28266C6.93088 5.28266 6.70767 5.33474 6.51794 5.53935C6.32821 5.74769 5.79621 6.2462 5.79621 7.26182C5.79621 8.27745 6.53654 9.25959 6.63699 9.39724C6.74115 9.53489 8.0916 11.6182 10.1638 12.5148C11.4733 13.0803 11.9867 13.1286 12.6415 13.0319C13.0395 12.9724 13.8617 12.5334 14.0328 12.0498C14.204 11.5661 14.204 11.1532 14.1519 11.0676C14.1035 10.9746 13.9659 10.9225 13.7612 10.8221Z" fill="#0077B2"/>
</svg>
